<svg xmlns="http://www.w3.org/2000/svg" viewBox="0 0 87.45 21.47"><defs><style>.cls-1{isolation:isolate;}.cls-2,.cls-3{fill:#fff;}.cls-3,.cls-4{fill-rule:evenodd;}.cls-4{fill:#b3b4b4;}</style></defs><g id="Layer_2" data-name="Layer 2"><g id="Layer_1-2" data-name="Layer 1"><g class="cls-1"><path class="cls-2" d="M29.62,9.63l.67-1.51a4.48,4.48,0,0,0,2.38.72c.85,0,1.18-.24,1.18-.59,0-1.15-4.11-.31-4.11-3,0-1.29,1.05-2.35,3.2-2.35a5.43,5.43,0,0,1,2.62.63l-.63,1.52a4.28,4.28,0,0,0-2-.56c-.86,0-1.17.29-1.17.65,0,1.11,4.1.28,4.1,2.94,0,1.26-1,2.33-3.2,2.33A5.7,5.7,0,0,1,29.62,9.63Z"/><path class="cls-2" d="M36.73,7.06v-4h2V7c0,1.24.52,1.73,1.38,1.73S41.51,8.24,41.51,7V3.06h2v4a3.08,3.08,0,0,1-3.4,3.36A3.07,3.07,0,0,1,36.73,7.06Z"/><path class="cls-2" d="M44.9,3.06h3.41c2.39,0,4,1.39,4,3.61s-1.64,3.61-4,3.61H44.9Zm3.33,5.59a1.88,1.88,0,0,0,2.05-2,1.88,1.88,0,0,0-2.05-2H46.94v4Z"/><path class="cls-2" d="M53.41,3.06h2v7.22h-2Z"/></g><g class="cls-1"><path class="cls-2" d="M59,9.36,60.15,8a1.57,1.57,0,0,0,1.25.75c.58,0,.9-.36.9-1V4.64H59.81V3.06h4.52V7.62a2.48,2.48,0,0,1-2.79,2.8A3.14,3.14,0,0,1,59,9.36Z"/></g><g class="cls-1"><path class="cls-2" d="M70.39,8.88h-3l-.57,1.4H64.69l3.18-7.22h2l3.2,7.22H71Zm-.6-1.51-.93-2.31-.92,2.31Z"/><path class="cls-2" d="M77.07,7.69v2.59H75V7.66l-2.76-4.6h2.16l1.71,2.87,1.71-2.87h2Z"/></g><g class="cls-1"><path class="cls-2" d="M84.76,8.88H81.71l-.57,1.4H79.06l3.18-7.22h2l3.2,7.22H85.33Zm-.6-1.51-.93-2.31-.92,2.31Z"/></g><g class="cls-1"><path class="cls-2" d="M35,15.44h1.8v3a5.43,5.43,0,0,1-3,.91,3.76,3.76,0,1,1,0-7.51,4,4,0,0,1,3.16,1.32l-1.3,1.18a2.22,2.22,0,0,0-1.75-.8,1.94,1.94,0,0,0-2.07,2.06,2,2,0,0,0,2.05,2.06,2.65,2.65,0,0,0,1.1-.23Z"/><path class="cls-2" d="M44.22,17.28H43.1V19.2h-2V12h3.3c2,0,3.21,1,3.21,2.67a2.4,2.4,0,0,1-1.41,2.28l1.55,2.27H45.53Zm0-3.69H43.1V15.7h1.14c.84,0,1.27-.39,1.27-1S45.08,13.59,44.24,13.59Z"/><path class="cls-2" d="M51.32,15.59a4,4,0,1,1,4,3.75A3.78,3.78,0,0,1,51.32,15.59Zm6,0a2,2,0,1,0-3.9,0,2,2,0,1,0,3.9,0Z"/><path class="cls-2" d="M63.35,16V12h2v3.94c0,1.24.52,1.73,1.38,1.73s1.36-.49,1.36-1.73V12h2v4a3.08,3.08,0,0,1-3.4,3.36A3.07,3.07,0,0,1,63.35,16Z"/><path class="cls-2" d="M81,14.65c0,1.64-1.24,2.66-3.21,2.66H76.56V19.2h-2V12h3.3C79.79,12,81,13,81,14.65Zm-2.07,0c0-.67-.42-1.06-1.27-1.06H76.56V15.7h1.13C78.54,15.7,79,15.31,79,14.65Z"/></g><path class="cls-3" d="M14.1,0A10.73,10.73,0,0,0,3.4,10.8a11.08,11.08,0,0,0,.2,1.9c1.3-.3,2.6-.7,3.9-1.1v-.8a6.7,6.7,0,0,1,6.7-6.7,7.32,7.32,0,0,1,4,1.3,38.33,38.33,0,0,0,2.9-2.8,10.84,10.84,0,0,0-7-2.6ZM4.3,15.3a10.62,10.62,0,0,0,14.3,5.1,10.67,10.67,0,0,0,6.2-9.7v-.6a2.19,2.19,0,0,1-.5.3h0c-1.2.7-2.4,1.3-3.7,1.9a6.68,6.68,0,0,1-8.1,4.9,6.58,6.58,0,0,1-3.4-2,27.15,27.15,0,0,1-2.9.1Z"/><path class="cls-4" d="M11.8,16.3A6.79,6.79,0,0,0,17,13.7c.9-.3,1.9-.6,2.8-1a6,6,0,0,1-5.7,4,5.87,5.87,0,0,1-2.3-.4Z"/><path class="cls-4" d="M8.1,11.3c.6-.2,1.1-.5,1.7-.7a6.68,6.68,0,0,1,5.5-5.7,4.87,4.87,0,0,0-1.2-.1,6,6,0,0,0-6,6v.4c-.1,0-.1,0,0,.1Z"/><path class="cls-3" d="M0,14.1a32.42,32.42,0,0,0,6.2.5A35.52,35.52,0,0,0,23.9,9.9a4,4,0,0,0,2-3.5,10.67,10.67,0,0,0-1.7-5.1.6.6,0,0,0-.6-.3.76.76,0,0,0-.5.2A34.72,34.72,0,0,1,0,14.1Z"/></g></g></svg>