<?xml version="1.0" encoding="utf-8"?>
<!-- Generator: Adobe Illustrator 25.0.0, SVG Export Plug-In . SVG Version: 6.00 Build 0)  -->
<svg version="1.1" id="Layer_1" xmlns="http://www.w3.org/2000/svg" xmlns:xlink="http://www.w3.org/1999/xlink" x="0px" y="0px"
	 viewBox="0 0 156.4 241.8" style="enable-background:new 0 0 156.4 241.8;" xml:space="preserve">
<style type="text/css">
	.st0{clip-path:url(#SVGID_2_);}
	.st1{fill:#0B0B0B;}
	.st2{fill-rule:evenodd;clip-rule:evenodd;fill:#232323;}
	.st3{fill:#2B88A0;}
</style>
<g id="Layer_2_1_">
	<g id="OBJECTS">
		<g>
			<defs>
				<rect id="SVGID_1_" y="0" width="156.4" height="241.9"/>
			</defs>
			<clipPath id="SVGID_2_">
				<use xlink:href="#SVGID_1_"  style="overflow:visible;"/>
			</clipPath>
			<g class="st0">
				<rect y="0" class="st1" width="156.4" height="241.9"/>
				<path class="st2" d="M84.9,75.2C19.8,75.3-32.8,128.1-32.8,193.1c0,7.2,0.7,14.3,2,21.4c14.5-3.4,28.7-7.6,42.7-12.6
					c-0.4-3-0.5-6-0.5-9c0-40.6,32.8-73.5,73.4-73.5c15.8,0,31.3,5.1,44,14.5c11.3-9.7,21.9-20,32-30.9
					C139.6,85,112.7,75.2,84.9,75.2z M-21.7,242.9c27.6,58.8,97.7,84.2,156.5,56.6c41.3-19.4,67.7-60.9,67.7-106.6
					c0-2.4-0.1-4.6-0.2-6.9c-1.6,1.2-3.3,2.4-5,3.4c-0.2,0.1-0.4,0.3-0.6,0.5c-13,7.6-26.5,14.4-40.4,20.5
					c-9.6,39.4-49.4,63.6-88.8,54c-14.3-3.5-27.3-11.2-37.2-22.2C20,243,9.5,243.4-1,243.4C-7.8,243.4-14.6,243.2-21.7,242.9
					L-21.7,242.9z"/>
				<path class="st2" d="M59.9,253.5c22.1-0.4,42.9-10.7,56.5-28.1c10.3-3.2,20.4-6.9,30.4-11c-4.2,11.9-11.6,22.3-21.5,30.1
					c-11.5,9-25.8,14-40.4,14C76.3,258.4,67.8,256.7,59.9,253.5L59.9,253.5z"/>
				<path class="st2" d="M19.7,199c6.3-2.4,12.6-5.1,18.7-7.9c4.4-31.6,28.7-56.8,60.1-62.3c-4.5-0.9-9-1.4-13.6-1.5
					c-36.2,0-65.5,29.3-65.5,65.5c0,1.5,0.1,2.9,0.1,4C19.6,197.5,19.6,198.2,19.7,199L19.7,199z"/>
				<path class="st2" d="M-69.4,229.6c22.1,4.2,46,5.8,68.3,5.8c68.1,0,134.9-18.2,193.7-52.6c13.6-7.8,21.9-22.3,21.9-37.9
					c0-16.9-9.3-41.4-18.4-55.8c-2-3.5-6.5-4.7-10-2.7c-0.7,0.4-1.3,0.9-1.9,1.5C121.8,166.2,29.8,217.1-69.4,229.6z"/>
				<path class="st3" d="M0.5,232.1H186c3.4,0,6.2,2.8,6.2,6.2v61.6c0,3.4-2.8,6.2-6.2,6.2H0.5c-3.4,0-6.2-2.8-6.2-6.2v-61.6
					C-5.7,234.9-2.9,232.1,0.5,232.1z"/>
			</g>
		</g>
	</g>
</g>
</svg>
