<?xml version="1.0" encoding="utf-8"?>
<!-- Generator: Adobe Illustrator 25.0.0, SVG Export Plug-In . SVG Version: 6.00 Build 0)  -->
<svg version="1.1" id="Layer_1" xmlns="http://www.w3.org/2000/svg" xmlns:xlink="http://www.w3.org/1999/xlink" x="0px" y="0px"
	 viewBox="0 0 156 241.9" style="enable-background:new 0 0 156 241.9;" xml:space="preserve">
<style type="text/css">
	.st0{clip-path:url(#SVGID_2_);}
	.st1{fill:#0B0B0B;}
	.st2{fill-rule:evenodd;clip-rule:evenodd;fill:#232323;}
	.st3{fill:#2B88A0;}
	.st4{fill:none;}
	.st5{fill:#FFFFFF;}
	.st6{enable-background:new    ;}
	.st7{fill-rule:evenodd;clip-rule:evenodd;fill:#FFFFFF;}
	.st8{fill-rule:evenodd;clip-rule:evenodd;fill:#B3B4B4;}
</style>
<g id="Layer_2_1_">
	<g id="OBJECTS">
		<g>
			<g>
				<defs>
					<rect id="SVGID_1_" x="-0.4" y="0" width="156.4" height="241.9"/>
				</defs>
				<clipPath id="SVGID_2_">
					<use xlink:href="#SVGID_1_"  style="overflow:visible;"/>
				</clipPath>
				<g class="st0">
					<rect x="-0.4" y="0" class="st1" width="156.4" height="241.9"/>
					<path class="st2" d="M84.5,75.2c-65,0.1-117.7,52.9-117.7,117.9c0,7.2,0.7,14.3,2,21.4c14.5-3.4,28.7-7.6,42.7-12.6
						c-0.4-3-0.5-6-0.5-9c0-40.6,32.8-73.5,73.4-73.5c15.8,0,31.3,5.1,44,14.5c11.3-9.7,21.9-20,32-30.9
						C139.2,85,112.3,75.2,84.5,75.2z M-22,242.9c27.6,58.8,97.7,84.2,156.5,56.6c41.3-19.4,67.7-60.9,67.7-106.6
						c0-2.4-0.1-4.6-0.2-6.9c-1.6,1.2-3.3,2.4-5,3.4c-0.2,0.1-0.4,0.3-0.6,0.5c-13,7.6-26.5,14.4-40.4,20.5
						c-9.6,39.4-49.4,63.6-88.8,54c-14.3-3.5-27.3-11.2-37.2-22.2c-10.4,0.8-20.9,1.2-31.4,1.2C-8.2,243.4-15,243.2-22,242.9
						L-22,242.9z"/>
					<path class="st2" d="M59.5,253.5c22.1-0.4,42.9-10.7,56.5-28.1c10.3-3.2,20.4-6.9,30.4-11c-4.2,11.9-11.6,22.3-21.5,30.1
						c-11.5,9-25.8,14-40.4,14C75.9,258.4,67.4,256.7,59.5,253.5L59.5,253.5z"/>
					<path class="st2" d="M19.3,199c6.3-2.4,12.6-5.1,18.7-7.9c4.4-31.6,28.7-56.8,60.1-62.3c-4.5-0.9-9-1.4-13.6-1.5
						c-36.2,0-65.5,29.3-65.5,65.5c0,1.5,0.1,2.9,0.1,4C19.2,197.5,19.2,198.2,19.3,199L19.3,199z"/>
					<path class="st2" d="M-69.8,229.6c22.1,4.2,46,5.8,68.3,5.8c68.1,0,134.9-18.2,193.7-52.6c13.6-7.8,21.9-22.3,21.9-37.9
						c0-16.9-9.3-41.4-18.4-55.8c-2-3.5-6.5-4.7-10-2.7c-0.7,0.4-1.3,0.9-1.9,1.5C121.4,166.2,29.4,217.1-69.8,229.6z"/>
					<path class="st3" d="M-3.8,232.1h193.3c1.2,0,2.3,1,2.3,2.3v5.3c0,1.2-1,2.3-2.3,2.3H-3.8c-1.2,0-2.3-1-2.3-2.3v-5.3
						C-6.1,233.1-5,232.1-3.8,232.1z"/>
				</g>
			</g>
		</g>
		<path class="st4" d="M9.9,0H146c5.5,0,9.9,4.5,9.9,9.9v222c0,5.5-4.5,9.9-9.9,9.9H9.9c-5.5,0-9.9-4.5-9.9-9.9V9.9
			C0,4.5,4.5,0,9.9,0z"/>
		<path class="st5" d="M94.5,237.6c0.1,0.3,0.3,0.5,0.6,0.4c0.4,0,0.5-0.1,0.5-0.4s-0.1-0.3-0.6-0.4c-1-0.2-1.1-0.5-1.1-1
			s0.3-0.9,1.2-0.9s1.2,0.5,1.2,0.9h-0.7c0-0.1-0.1-0.4-0.6-0.4s-0.4,0.1-0.4,0.3s0.1,0.3,0.6,0.4c1,0.2,1.2,0.6,1.2,1s-0.4,1-1.3,1
			s-1.3-0.4-1.3-1L94.5,237.6z"/>
		<path class="st5" d="M99.6,237.6c0,0.3,0,0.6,0,0.9h-0.7c0-0.1,0-0.3,0-0.4c-0.2,0.3-0.5,0.5-0.9,0.5c-0.6,0-1-0.3-1-1.1v-2h0.7
			v1.9c0,0.4,0.1,0.7,0.5,0.7s0.6-0.2,0.6-0.9v-1.6h0.7v2H99.6z"/>
		<path class="st5" d="M103.2,234.1v3.5c0,0.3,0,0.6,0,0.9h-0.7c0-0.1,0-0.3,0-0.4c-0.2,0.3-0.5,0.5-0.9,0.4c-0.8,0-1.3-0.6-1.3-1.6
			c-0.1-0.8,0.5-1.5,1.2-1.6c0.1,0,0.1,0,0.2,0c0.3,0,0.6,0.1,0.8,0.3V234L103.2,234.1z M101,237c0,0.6,0.3,1,0.7,1
			c0.6,0,0.7-0.5,0.7-1s-0.1-1-0.7-1S101,236.3,101,237z"/>
		<path class="st5" d="M104,234.1h0.7v0.7H104V234.1z M104,235.4h0.7v3.1H104V235.4z"/>
		<path class="st5" d="M106.3,235.4v3.1c0,0.9-0.2,1.3-1,1.3h-0.2v-0.6h0.1c0.3,0,0.4-0.1,0.4-0.5v-3.2L106.3,235.4z M105.6,234.9
			v-0.7h0.8v0.7H105.6z"/>
		<path class="st5" d="M109.6,237.8c0,0.2,0,0.5,0,0.8h-0.7c0-0.1,0-0.2,0-0.3c-0.2,0.3-0.5,0.5-0.9,0.4c-0.6,0-1-0.4-1-1
			c0-0.7,0.6-1,1.5-1h0.5v-0.2c0-0.2-0.1-0.5-0.5-0.5s-0.5,0.2-0.5,0.4h-0.7c0-0.5,0.4-1,1.3-1s1.2,0.3,1.2,1L109.6,237.8z
			 M108.9,237.1h-0.4c-0.6,0-0.8,0.2-0.8,0.5c0,0.2,0.2,0.4,0.4,0.5c0,0,0,0,0.1,0C108.8,238,108.9,237.6,108.9,237.1L108.9,237.1z"
			/>
		<path class="st5" d="M110.8,235.4c0.4,1.2,0.7,2.1,0.7,2.4l0,0c0.1-0.3,0.3-1,0.7-2.4h0.8l-1.1,3.2c-0.3,0.9-0.5,1.1-1.2,1.1h-0.4
			v-0.6h0.2c0.3,0,0.5-0.1,0.6-0.5l-1.1-3.2H110.8z"/>
		<path class="st5" d="M115.8,237.8c0,0.3,0,0.7,0,0.8h-0.7c0-0.1,0-0.2,0-0.3c-0.3,0.5-1,0.6-1.5,0.3c-0.3-0.2-0.4-0.5-0.5-0.8
			c0-0.7,0.6-1,1.5-1h0.5v-0.2c0-0.2-0.1-0.5-0.5-0.5s-0.5,0.2-0.5,0.4h-0.7c0.1-0.5,0.4-1,1.3-1s1.2,0.3,1.2,1L115.8,237.8z
			 M115,237.1h-0.4c-0.6,0-0.8,0.2-0.8,0.5c0,0.2,0.2,0.5,0.4,0.5c0,0,0,0,0.1,0C114.9,238,115,237.6,115,237.1L115,237.1z"/>
		<path class="st5" d="M119.3,238.2c0,1-0.4,1.6-1.5,1.6s-1.3-0.6-1.3-1h0.8c0.1,0.3,0.3,0.4,0.6,0.4c0.6,0,0.7-0.4,0.7-1V238
			c-0.2,0.3-0.5,0.5-0.9,0.5c-0.7,0-1.3-0.7-1.3-1.4V237c-0.1-0.8,0.5-1.5,1.2-1.6h0.1c0.6,0,0.8,0.3,0.8,0.4c0-0.1,0-0.3,0-0.4h0.7
			c0,0.2,0,0.6,0,0.9L119.3,238.2z M117.2,237c0,0.6,0.3,0.9,0.7,0.9s0.7-0.4,0.7-1s-0.1-1-0.7-1S117.2,236.3,117.2,237z"/>
		<path class="st5" d="M120.1,236.3c0-0.4,0-0.6,0-0.8h0.7c0,0.1,0,0.4,0,0.6c0.2-0.4,0.6-0.7,1-0.6v0.7c-0.6,0-1,0.2-1,1v1.4H120
			L120.1,236.3z"/>
		<path class="st5" d="M125.1,237c-0.1,0.8-0.8,1.4-1.6,1.4c-0.8-0.1-1.4-0.8-1.4-1.6c0.1-0.8,0.7-1.4,1.5-1.4s1.5,0.6,1.5,1.4
			C125.1,236.9,125.1,236.9,125.1,237z M122.9,237c0,0.6,0.3,1,0.7,1s0.7-0.4,0.7-1s-0.3-1-0.7-1S122.9,236.3,122.9,237z"/>
		<path class="st5" d="M128.4,237.6c0,0.3,0,0.6,0,0.9h-0.7c0-0.1,0-0.3,0-0.4c-0.2,0.3-0.5,0.5-0.9,0.5c-0.6,0-1-0.3-1-1.1v-2h0.7
			v1.9c0,0.4,0.1,0.7,0.5,0.7s0.6-0.2,0.6-0.9v-1.6h0.8V237.6z"/>
		<path class="st5" d="M129.9,238.2v1.5h-0.8v-4.3h0.7c0,0.1,0,0.3,0,0.4c0.2-0.3,0.6-0.5,0.9-0.5c0.7,0,1.2,0.6,1.2,1.5
			s-0.6,1.7-1.3,1.7C130.4,238.6,130.1,238.5,129.9,238.2z M131.3,236.9c0-0.6-0.2-1-0.7-1s-0.7,0.3-0.7,1s0.2,1,0.7,1
			S131.4,237.6,131.3,236.9L131.3,236.9z"/>
		<path class="st5" d="M132.6,238.5v-1h0.8v1H132.6z"/>
		<path class="st5" d="M136.7,237.5c-0.1,0.6-0.7,1.1-1.4,1c-0.8,0-1.4-0.6-1.4-1.4c0-0.1,0-0.2,0-0.2c-0.1-0.8,0.5-1.5,1.3-1.6h0.1
			c0.7-0.1,1.2,0.4,1.3,1.1l0,0H136c0-0.3-0.3-0.5-0.6-0.5c-0.4,0-0.7,0.4-0.7,1s0.3,1,0.7,1c0.3,0,0.5-0.2,0.6-0.5L136.7,237.5z"/>
		<path class="st5" d="M140.1,237c-0.1,0.8-0.8,1.4-1.6,1.4c-0.8-0.1-1.4-0.8-1.4-1.6c0.1-0.8,0.7-1.4,1.5-1.4s1.5,0.6,1.5,1.4
			C140.1,236.9,140.1,236.9,140.1,237z M137.9,237c0,0.6,0.3,1,0.7,1s0.7-0.4,0.7-1s-0.3-1-0.7-1S137.9,236.3,137.9,237z"/>
		<path class="st5" d="M140.7,236.2v-0.8h0.7c0,0.1,0,0.3,0,0.4c0.2-0.3,0.5-0.5,0.9-0.5s0.7,0.2,0.8,0.5c0.2-0.4,0.6-0.6,1-0.5
			c0.5,0,1,0.3,1,1.1v2h-0.7v-1.9c0-0.3-0.1-0.6-0.5-0.6s-0.6,0.3-0.6,0.8v1.8h-0.7v-1.9c0-0.4-0.1-0.6-0.5-0.6s-0.6,0.3-0.6,0.8
			v1.7h-0.7L140.7,236.2z"/>
		<path class="st5" d="M92.5,73.1h5.4V74h-4.5v3.5h4.2v0.8h-4.2v4.6h-0.9V73.1z"/>
		<path class="st5" d="M99.2,82.7V72.6h0.9v10.1H99.2z"/>
		<path class="st5" d="M107.7,79.1c0,2-0.8,3.7-3,3.7s-2.9-1.8-2.9-3.7s1-3.5,3-3.5S107.7,77.1,107.7,79.1z M102.7,79.1
			c0,1.7,0.7,2.9,2.1,2.9s2-1.2,2-3c0-1.6-0.7-2.7-2.1-2.7S102.7,77.6,102.7,79.1L102.7,79.1z"/>
		<path class="st5" d="M109.3,78.1c0-1.1,0-2.1,0-2.4h0.9c0,0.3,0,0.8,0,1.5c0.3-1,1.3-1.6,2.3-1.6v0.9c-1.3,0-2.3,1-2.3,2.3
			c0,0.1,0,0.2,0,0.3v3.5h-0.9V78.1z"/>
		<path class="st5" d="M114,79.4c0,1.6,0.7,2.7,2,2.7c0.8,0,1.5-0.5,1.8-1.3h0.8c-0.3,1.2-1.4,2.1-2.7,2c-2.2,0-2.8-1.8-2.8-3.7
			c0-1.7,0.8-3.6,2.9-3.6s2.7,1.7,2.7,3.3v0.5L114,79.4z M117.9,78.7c0-1.3-0.6-2.3-1.9-2.3c-1.5,0-1.9,1.4-1.9,2.3H117.9z"/>
		<path class="st5" d="M120.3,78c0-1.5,0-1.9,0-2.2h0.9c0,0.1,0.1,0.9,0,1.2c0.3-0.8,1.2-1.4,2.1-1.3c1.2,0,2.2,0.7,2.2,2.7v4.5
			h-0.9v-4.4c0-1.1-0.4-2-1.5-2c-1.4,0-1.9,1.1-1.9,2.6v3.7h-0.9L120.3,78z"/>
		<path class="st5" d="M127.8,80.8c0.1,0.8,0.9,1.4,1.7,1.4c1.1,0,1.5-0.6,1.5-1.3s-0.5-1.1-1.7-1.4c-1.6-0.4-2.1-1-2.1-2
			s0.7-1.9,2.2-1.9c1.1-0.1,2.2,0.6,2.3,1.8c0,0.1,0,0.2,0,0.2h-0.9c-0.1-0.8-0.7-1.3-1.5-1.2l0,0c-0.9,0-1.3,0.4-1.3,1.1
			s0.3,0.9,1.5,1.2c1.7,0.5,2.3,1,2.3,2.1c0,1.2-1,2.1-2.2,2.1c-0.1,0-0.2,0-0.2,0c-1.3,0.1-2.4-0.8-2.6-2v-0.1L127.8,80.8z"/>
		<path class="st5" d="M133.4,72.6h0.9V74h-0.9V72.6z M133.4,75.8h0.9v7h-0.9V75.8z"/>
		<path class="st5" d="M141.1,81.3c0,0.5,0,1,0.1,1.4h-0.8c-0.1-0.4-0.1-0.8-0.1-1.2c-0.3,0.9-1.2,1.4-2.2,1.3
			c-1.1,0.1-2.1-0.7-2.2-1.8c0-0.1,0-0.2,0-0.3c0-1,0.6-2.2,3.1-2.2h1.2v-0.7c0-0.7-0.2-1.5-1.5-1.5c-0.8-0.1-1.5,0.4-1.6,1.2
			c0,0.1,0,0.1,0,0.2h-0.9c0.1-1.2,0.8-2.1,2.5-2.1c1.4,0,2.4,0.6,2.4,2.1V81.3z M140.2,79.3H139c-1.9,0-2.2,0.8-2.2,1.5
			s0.5,1.3,1.2,1.4c0.1,0,0.1,0,0.2,0c1.5,0,2-1,2-2.7V79.3z"/>
		<path class="st5" d="M80.8,109c-0.1,0.9-0.9,1.5-1.8,1.4c-1.4,0-1.9-1.1-1.9-2.6c0-1.3,0.6-2.5,2-2.5c0.9-0.1,1.6,0.6,1.7,1.4l0,0
			h-0.5c-0.1-0.6-0.6-1.1-1.2-1.1c-1,0-1.5,1-1.5,2.1s0.3,2.1,1.5,2.1c0.6,0,1.2-0.4,1.3-1L80.8,109z"/>
		<path class="st5" d="M82,105.2v2.1c0.2-0.4,0.6-0.6,1.1-0.6s1.1,0.2,1.1,1.3v2.3h-0.4V108c0-0.6-0.2-1-0.8-1s-1,0.4-1,1.2v2h-0.4
			v-5.1L82,105.2z"/>
		<path class="st5" d="M85.3,105.2h0.4v0.8h-0.4V105.2z M85.3,106.8h0.4v3.6h-0.4V106.8z"/>
		<path class="st5" d="M87.1,108.7c0,0.8,0.3,1.4,1,1.4c0.4,0,0.8-0.3,0.9-0.7h0.4c-0.1,0.6-0.7,1-1.4,1c-1.1,0-1.4-0.9-1.4-1.9
			s0.4-1.8,1.5-1.8s1.4,0.9,1.4,1.7v0.3H87.1z M89.1,108.3c0-0.7-0.3-1.2-1-1.2s-1,0.7-1,1.2H89.1z"/>
		<path class="st5" d="M90.4,110.4v-3.2h-0.6v-0.4h0.6v-0.5c0-0.6,0.2-1.2,0.9-1.2c0.1,0,0.2,0,0.3,0v0.4c-0.1,0-0.2,0-0.3,0
			c-0.3,0-0.5,0.2-0.5,0.7v0.5h0.7v0.4h-0.7v3.2L90.4,110.4z"/>
		<path class="st5" d="M97.6,107.9c0,1.4-0.7,2.5-2,2.5s-2-1-2-2.5c0-1.3,0.7-2.5,2-2.5S97.6,106.5,97.6,107.9z M94.1,107.9
			c0,1.2,0.5,2.1,1.5,2.1s1.5-0.9,1.5-2.1s-0.5-2.1-1.5-2.1S94.1,106.8,94.1,107.9L94.1,107.9z"/>
		<path class="st5" d="M98.9,109.9v1.9h-0.4v-3.9c0-0.5,0-0.8,0-1.1h0.4c0,0.1,0,0.4,0,0.6c0.2-0.4,0.6-0.7,1.1-0.7
			c0.8,0,1.3,0.6,1.3,1.8s-0.6,1.9-1.4,1.9C99.5,110.5,99.1,110.3,98.9,109.9z M100.9,108.5c0-0.9-0.4-1.4-1-1.4c-0.8,0-1,0.6-1,1.4
			s0.1,1.4,1,1.4C100.5,110,100.9,109.5,100.9,108.5L100.9,108.5z"/>
		<path class="st5" d="M102.4,108.7c0,0.8,0.3,1.4,1,1.4c0.4,0,0.8-0.3,0.9-0.7h0.4c-0.1,0.6-0.7,1-1.4,1c-1.1,0-1.4-0.9-1.4-1.9
			s0.4-1.8,1.5-1.8s1.4,0.9,1.4,1.7v0.3H102.4z M104.4,108.3c0-0.7-0.3-1.2-1-1.2s-0.9,0.7-1,1.2H104.4z"/>
		<path class="st5" d="M105.6,108c0-0.6,0-1.1,0-1.2h0.4c0,0.2,0,0.4,0,0.8c0.2-0.5,0.7-0.8,1.2-0.8v0.5c-0.7,0-1.2,0.5-1.2,1.2
			c0,0.1,0,0.1,0,0.2v1.8h-0.5L105.6,108L105.6,108z"/>
		<path class="st5" d="M110.1,109.6c0,0.2,0,0.5,0,0.7h-0.4c0-0.2,0-0.4,0-0.6c-0.2,0.4-0.6,0.7-1.1,0.7c-0.5,0.1-1-0.3-1.1-0.9
			c0-0.1,0-0.1,0-0.2c0-0.5,0.3-1.1,1.6-1.1h0.6v-0.4c0-0.3-0.1-0.8-0.8-0.8c-0.4-0.1-0.8,0.2-0.8,0.6v0.1h-0.5
			c0.1-0.6,0.4-1.1,1.3-1.1c0.7,0,1.2,0.3,1.2,1.1L110.1,109.6z M109.7,108.6h-0.6c-1,0-1.1,0.4-1.1,0.7c0,0.4,0.2,0.7,0.6,0.7h0.1
			C109.4,110.1,109.7,109.6,109.7,108.6L109.7,108.6z"/>
		<path class="st5" d="M110.6,106.8h0.6v-1h0.4v1h0.8v0.4h-0.8v2.4c0,0.3,0.1,0.4,0.4,0.4c0.1,0,0.2,0,0.3,0v0.4
			c-0.1,0-0.3,0.1-0.4,0.1c-0.5,0-0.7-0.2-0.7-0.7v-2.5h-0.6C110.6,107.3,110.6,106.8,110.6,106.8z"/>
		<path class="st5" d="M113.1,105.2h0.4v0.8h-0.4V105.2z M113.1,106.8h0.4v3.6h-0.4V106.8z"/>
		<path class="st5" d="M114.6,107.9c0-0.8,0-1,0-1.1h0.4c0,0.1,0,0.5,0,0.6c0.2-0.4,0.6-0.7,1.1-0.7c0.6,0,1.1,0.3,1.1,1.3v2.3h-0.4
			v-2.2c0-0.6-0.2-1-0.8-1c-0.7,0-1,0.6-1,1.3v1.9h-0.4C114.6,110.3,114.6,107.9,114.6,107.9z"/>
		<path class="st5" d="M120.9,110.1c0,1.1-0.4,1.7-1.5,1.7s-1.3-0.5-1.3-1h0.5c0.1,0.4,0.5,0.7,0.9,0.7c0.8,0,1-0.6,1-1.4v-0.3
			c-0.2,0.4-0.6,0.7-1.1,0.6c-0.8,0-1.4-0.7-1.4-1.8s0.6-1.8,1.4-1.8c0.4-0.1,0.8,0.2,1,0.6c0-0.2,0-0.4,0-0.5h0.4c0,0.2,0,0.5,0,1
			L120.9,110.1z M118.5,108.6c0,0.9,0.4,1.4,1,1.4s1-0.5,1-1.4s-0.2-1.4-1-1.4S118.5,107.7,118.5,108.6z"/>
		<path class="st5" d="M127.6,107.9c0,1.4-0.6,2.5-2,2.5s-2-1-2-2.5c0-1.3,0.7-2.5,2-2.5S127.6,106.5,127.6,107.9z M124.1,107.9
			c0,1.2,0.5,2.1,1.5,2.1s1.5-0.9,1.5-2.1s-0.5-2.1-1.5-2.1S124.1,106.8,124.1,107.9L124.1,107.9z"/>
		<path class="st5" d="M129.2,107.2v3.2h-0.4v-3.2h-0.6v-0.4h0.6v-0.5c0-0.6,0.2-1.2,0.9-1.2c0.1,0,0.2,0,0.4,0.1v0.4
			c-0.1,0-0.2,0-0.3,0c-0.4,0-0.5,0.2-0.5,0.7v0.5h1.2v-0.4c0-0.6,0.2-1.2,0.9-1.2c0.1,0,0.2,0,0.4,0.1v0.4c-0.1,0-0.2-0.1-0.3-0.1
			c-0.3,0-0.5,0.2-0.5,0.8v0.5h0.7v0.4H131v3.2h-0.4v-3.2L129.2,107.2z"/>
		<path class="st5" d="M132.1,105.2h0.4v0.8h-0.4V105.2z M132.1,106.8h0.4v3.6h-0.4V106.8z"/>
		<path class="st5" d="M136.2,109.3c-0.1,0.7-0.7,1.2-1.4,1.2c-1,0-1.5-0.7-1.5-1.8c0-1,0.5-1.8,1.5-1.8c0.7,0,1.3,0.5,1.3,1.2l0,0
			h-0.5c0-0.5-0.4-0.8-0.9-0.8c-0.7,0-1,0.6-1,1.4s0.4,1.5,1,1.5c0.5,0,0.8-0.3,0.9-0.8L136.2,109.3z"/>
		<path class="st5" d="M137.2,108.7c0,0.8,0.4,1.4,1,1.4c0.4,0,0.8-0.3,0.9-0.7h0.5c-0.1,0.6-0.7,1-1.4,1c-1.1,0-1.4-0.9-1.4-1.9
			s0.4-1.8,1.5-1.8s1.4,0.9,1.4,1.7v0.3H137.2z M139.2,108.3c0-0.7-0.3-1.2-1-1.2s-0.9,0.7-1,1.2H139.2z"/>
		<path class="st5" d="M140.5,108c0-0.6,0-1.1,0-1.2h0.4c0,0.2,0,0.4,0,0.8c0.2-0.5,0.6-0.8,1.2-0.8v0.5c-0.7,0-1.2,0.5-1.2,1.2
			c0,0.1,0,0.1,0,0.2v1.8h-0.4V108z"/>
		<path class="st5" d="M100.5,88.4h1.3v2.9h2.9v-2.9h1.3v7.2h-1.3v-3.2h-2.9v3.2h-1.3V88.4z"/>
		<path class="st5" d="M111.3,94.2c0,0.4,0,0.9,0.1,1.3h-1.1c0-0.2-0.1-0.5-0.1-0.7c-0.3,0.6-0.9,0.9-1.5,0.8
			c-0.9,0.1-1.6-0.5-1.8-1.4c0-0.1,0-0.2,0-0.3c0-0.9,0.6-1.7,2.5-1.7h0.7v-0.4c0-0.5-0.1-0.9-0.9-0.9s-0.9,0.3-0.9,0.8h-1.2
			c0.1-0.9,0.6-1.7,2.1-1.7c1.2,0,2,0.4,2,1.7L111.3,94.2z M110.2,93h-0.7c-1.1,0-1.3,0.4-1.3,0.8s0.3,0.8,0.7,0.8h0.1
			c0.9,0,1.2-0.6,1.2-1.5L110.2,93z"/>
		<path class="st5" d="M113.4,93.9c0.1,0.5,0.5,0.9,1,0.8c0.6,0,0.8-0.2,0.8-0.6s-0.3-0.6-1.2-0.8c-1.4-0.4-1.7-0.9-1.7-1.6
			s0.4-1.6,1.9-1.6s2,0.7,2,1.6H115c0-0.4-0.4-0.7-0.8-0.7l0,0c-0.5,0-0.7,0.2-0.7,0.6s0.2,0.5,1,0.7c1.4,0.4,1.9,0.9,1.9,1.7
			c0,1.1-0.9,1.7-2.1,1.7s-2.1-0.6-2.2-1.7L113.4,93.9z"/>
		<path class="st5" d="M121.8,94c0,0.7,0,1.3,0,1.6h-1.2c0-0.2,0-0.5,0-0.7c-0.3,0.5-0.9,0.9-1.5,0.8c-1,0-1.7-0.6-1.7-1.9v-3.6h1.2
			v3.4c0,0.6,0.2,1.1,0.9,1.1s1.1-0.4,1.1-1.4v-3h1.2V94z"/>
		<path class="st5" d="M127.6,95c0,1.7-0.7,2.7-2.4,2.7S123,96.8,123,96h1.2c0.1,0.5,0.5,0.7,1.1,0.7c1,0,1.2-0.6,1.2-1.6v-0.4
			c-0.3,0.5-0.9,0.8-1.5,0.8c-1.3,0-2.1-1-2.1-2.7s1-2.7,2.2-2.7c0.8,0,1.2,0.3,1.3,0.7c0-0.2,0-0.4,0-0.5h1.2c0,0.3,0,0.8,0,1.6
			C127.6,91.9,127.6,95,127.6,95z M124.1,92.7c0,1,0.4,1.7,1.2,1.7s1.2-0.5,1.2-1.7s-0.2-1.7-1.2-1.7
			C124.6,91.1,124.1,91.6,124.1,92.7L124.1,92.7z"/>
		<path class="st5" d="M129,87.9h1.2v1.2H129V87.9z M129,90.2h1.2v5.3H129V90.2z"/>
		<path class="st5" d="M135.6,94.2c0,0.4,0,0.9,0.1,1.3h-1.1c0-0.2-0.1-0.5-0.1-0.7c-0.6,0.8-1.7,1-2.5,0.5
			c-0.4-0.3-0.7-0.8-0.8-1.3c0-0.9,0.6-1.7,2.5-1.7h0.7v-0.4c0-0.5-0.1-0.9-0.9-0.9c-0.4-0.1-0.8,0.2-0.9,0.6v0.1h-1.2
			c0.1-0.9,0.6-1.7,2.1-1.7c1.2,0,2,0.4,2,1.7L135.6,94.2z M134.4,93h-0.7c-1.1,0-1.3,0.4-1.3,0.8s0.3,0.8,0.7,0.8h0.1
			c0.9,0,1.1-0.6,1.1-1.5L134.4,93z"/>
		<path class="st5" d="M137,91.8c0-1.1,0-1.4,0-1.7h1.2c0,0.2,0,0.5,0,0.7c0.3-0.6,0.9-0.9,1.5-0.8c1.1,0,1.7,0.7,1.7,2v3.5h-1.2
			v-3.3c0-0.7-0.2-1.2-0.9-1.2s-1.1,0.5-1.1,1.5v3H137V91.8z"/>
		<path class="st5" d="M124.7,206.8h-1.3v-1.3H122l0,0V204h1.4v-2.7H122v2.7h-4.2v4.1h-1.4v-2.7H115v1.3h-1.4v1.4h-1.4v4.1h-1.4
			v-5.5h1.4v-1.4h1.4V204h2.7v-2.7h-1.4v1.3h-1.3v1.4h-1.4v1.4h-1.4v-2.8h1.4v-1.3h-1.4v-1.4h7v2.7h2.8v-1.3h-1.4v-1.4h6.9v1.4h-1.4
			v2.7h1.4v-1.4h4.1v-1.3h-2.7V197h1.3v1.4h1.4v1.4h2.8V197h1.4v2.8h1.4v2.8h4.2v1.4h-1.4v1.4h2.8v1.3H140v2.8h-1.5v-1.4h-1.3v1.4
			h-2.8v-2.8H133v2.8h-1.3v1.4h-1.4v-1.3h-1.4v1.3h-1.2v-4.1h-1.4v-1.3h-1.4L124.7,206.8L124.7,206.8z M133.1,202.6h-1.3v2.8h1.3
			V202.6h1.4v-1.3h-1.4V202.6z M130.3,208.2v-4.1h-2.7v1.4h1.3v2.7L130.3,208.2L130.3,208.2z M135.9,204.1v1.4h1.4v-1.4H135.9z"/>
		<path class="st5" d="M141.5,215.2c0,1.4,0,2.8,0,4.2h-1.4v1.3h1.4v-1.3h1.3v1.4h1.4v1.4h1.4v1.4h-5.5v-1.4h-1.5v-1.4h-1.3v1.4
			h-2.9v-1.4h1.4v-1.4h-4.1V218h1.3v-1.4h-1.3v-1.3h1.3v-1.4h-1.3V211h1.3v-1.4h1.4v1.4h7v1.4H140v2.9L141.5,215.2L141.5,215.2z
			 M134.5,216.5h4.1v-4.1h-4.1V216.5z"/>
		<path class="st5" d="M135.9,188.8h9.7v9.7h-9.7V188.8z M144.2,197v-6.9h-6.9v6.9H144.2z"/>
		<path class="st5" d="M110.9,198.4v-9.7h9.7v9.7H110.9z M119.2,190.1h-6.9v6.9h6.9V190.1z"/>
		<path class="st5" d="M120.5,213.8v9.7h-0.4c-3,0-5.9,0-8.9,0c-0.3,0-0.4-0.1-0.4-0.4c0-3,0-6,0-9c0-0.1,0-0.2,0-0.3H120.5z
			 M119.2,215.2h-6.9v6.9h6.9V215.2z"/>
		<path class="st5" d="M133.1,190.1v1.4h-1.3v1.3h-1.4v-1.3h-2.8v2.7h-1.4v-1.4h-1.4v1.4H122v-1.4h1.4v-1.3H122v-1.4h1.4v-1.4h1.3
			v2.8h1.4v-1.4h4.2v-1.4h1.4v1.4L133.1,190.1L133.1,190.1z"/>
		<path class="st5" d="M131.7,219.4v1.3h-4.1v1.4h-1.4v-1.4h-2.7v2.8H122v-7h4.1v1.5h-1.4v1.4h1.4V218h1.5v1.4H131.7L131.7,219.4z"
			/>
		<path class="st5" d="M126.1,216.5v-1.3h-1.4v-2.8h1.4v1.4h4.2v2.8h1.4v1.4h-2.9v-2.7h-1.3v1.3L126.1,216.5L126.1,216.5z"/>
		<path class="st5" d="M128.9,197v-1.4h2.8v-2.8h1.3v-1.3h1.4v2.7H133v2.8h-1.3v1.4h-1.4V197H128.9L128.9,197z"/>
		<path class="st5" d="M141.5,215.2v-1.4h2.7V211h-1.4v-1.4h2.8v5.6L141.5,215.2L141.5,215.2z"/>
		<path class="st5" d="M142.8,219.4V218h2.8v2.7h-1.4v-1.3H142.8z"/>
		<path class="st5" d="M126.1,194.3v4.1h-1.4v-4.1H126.1L126.1,194.3z"/>
		<path class="st5" d="M142.8,205.5h2.8v2.7h-1.4v-1.4h-1.4L142.8,205.5L142.8,205.5z"/>
		<path class="st5" d="M122,205.4v2.8h-1.4v-1.4h-1.4v-1.3L122,205.4L122,205.4z"/>
		<path class="st5" d="M122,212.4h1.4v2.8H122V212.4z"/>
		<path class="st5" d="M134.5,222.1v1.4h-2.7v-1.4H134.5L134.5,222.1z"/>
		<path class="st5" d="M117.8,209.6v-1.4l0,0h2.8l0,0c0,0.5,0,0.9,0,1.4l0,0H117.8L117.8,209.6z"/>
		<path class="st5" d="M116.4,211v1.4h-2.7V211H116.4z"/>
		<path class="st5" d="M123.3,198.4H122v-2.7h1.3V198.4z"/>
		<path class="st5" d="M120.6,211c0-0.4,0-0.9,0-1.4l0,0h2.8v1.4H120.6z"/>
		<path class="st5" d="M126.1,206.8v1.4h-1.4v-1.4H126.1z"/>
		<path class="st5" d="M120.6,211v1.4h-1.4V211H120.6z"/>
		<path class="st5" d="M144.2,201.3h-1.4v-1.4h1.4V201.3L144.2,201.3z"/>
		<path class="st5" d="M140.1,201.3v-1.4h1.4v1.4H140.1z"/>
		<path class="st5" d="M133.1,190.1v-1.4h1.4v1.4H133.1L133.1,190.1z"/>
		<path class="st5" d="M128.9,222.1h1.4v1.4h-1.4V222.1z"/>
		<path class="st5" d="M113.6,208.2h1.3v1.4h-1.3V208.2L113.6,208.2z"/>
		<path class="st5" d="M142.8,209.6h-1.3v-1.4h1.3V209.6L142.8,209.6z"/>
		<path class="st5" d="M116.4,211v-1.3h1.4v1.3H116.4z"/>
		<path class="st5" d="M124.8,209.6h1.3v1.3h-1.3V209.6z"/>
		<path class="st5" d="M144.2,201.3h1.4v1.3h-1.4V201.3L144.2,201.3z"/>
		<path class="st5" d="M137.3,199.9h1.3v1.4h-1.3V199.9z"/>
		<path class="st5" d="M128.9,195.7h-1.3v-1.4h1.3V195.7L128.9,195.7z"/>
		<path class="st5" d="M142.8,204h-1.3v-1.4h1.3V204z"/>
		<path class="st5" d="M135.9,215.2v-1.4h1.4v1.4H135.9z"/>
		<path class="st5" d="M142.8,195.7h-4.1v-4.1h4.1V195.7z"/>
		<path class="st5" d="M117.8,195.7h-4.2v-4.1h4.1L117.8,195.7z"/>
		<path class="st5" d="M113.6,216.6h4.1v4.1h-4.1V216.6z"/>
		<path class="st5" d="M128.9,194.3v-1.4h1.4v1.4H128.9z"/>
		<g class="st6">
			<path class="st5" d="M63.7,29.7l0.7-1.5c0.6,0.4,1.5,0.7,2.4,0.7c0.8,0,1.2-0.2,1.2-0.6c0-1.1-4.1-0.3-4.1-3
				c0-1.3,1.1-2.3,3.2-2.3c0.9,0,1.9,0.2,2.6,0.6L69,25.2c-0.7-0.4-1.4-0.6-2-0.6c-0.9,0-1.2,0.3-1.2,0.6c0,1.1,4.1,0.3,4.1,2.9
				c0,1.3-1.1,2.3-3.2,2.3C65.6,30.5,64.4,30.2,63.7,29.7z"/>
			<path class="st5" d="M70.8,27.2v-4h2v3.9c0,1.2,0.5,1.7,1.4,1.7c0.8,0,1.4-0.5,1.4-1.7v-3.9h2v4c0,2.2-1.3,3.4-3.4,3.4
				S70.8,29.3,70.8,27.2z"/>
			<path class="st5" d="M79,23.2h3.4c2.4,0,4,1.4,4,3.6s-1.6,3.6-4,3.6H79V23.2z M82.3,28.8c1.2,0,2.1-0.7,2.1-2s-0.8-2-2.1-2H81v4
				H82.3z"/>
			<path class="st5" d="M87.5,23.2h2v7.2h-2V23.2z"/>
		</g>
		<g class="st6">
			<path class="st5" d="M93.1,29.5l1.1-1.3c0.4,0.5,0.8,0.8,1.2,0.8c0.6,0,0.9-0.4,0.9-1.1v-3.1h-2.5v-1.6h4.5v4.6
				c0,1.9-1,2.8-2.8,2.8C94.6,30.5,93.7,30.2,93.1,29.5z"/>
		</g>
		<g class="st6">
			<path class="st5" d="M104.5,29h-3.1l-0.6,1.4h-2.1l3.2-7.2h2l3.2,7.2h-2.1L104.5,29z M103.9,27.5l-0.9-2.3l-0.9,2.3H103.9z"/>
			<path class="st5" d="M111.2,27.8v2.6h-2v-2.6l-2.8-4.6h2.2l1.7,2.9l1.7-2.9h2L111.2,27.8z"/>
		</g>
		<g class="st6">
			<path class="st5" d="M118.9,29h-3.1l-0.6,1.4h-2.1l3.2-7.2h2l3.2,7.2h-2.1L118.9,29z M118.3,27.5l-0.9-2.3l-0.9,2.3H118.3z"/>
		</g>
		<g class="st6">
			<path class="st5" d="M69.1,35.5h1.8v3c-0.8,0.6-2,0.9-3,0.9c-2.3,0-4-1.6-4-3.8s1.7-3.8,4-3.8c1.4,0,2.4,0.5,3.2,1.3l-1.3,1.2
				c-0.5-0.5-1.1-0.8-1.8-0.8c-1.2,0-2.1,0.8-2.1,2.1c0,1.2,0.8,2.1,2,2.1c0.4,0,0.7-0.1,1.1-0.2V35.5z"/>
			<path class="st5" d="M78.3,37.4h-1.1v1.9h-2v-7.2h3.3c2,0,3.2,1,3.2,2.7c0,1.1-0.5,1.8-1.4,2.3l1.6,2.3h-2.2L78.3,37.4z
				 M78.3,33.7h-1.1v2.1h1.1c0.8,0,1.3-0.4,1.3-1.1C79.6,34.1,79.2,33.7,78.3,33.7z"/>
			<path class="st5" d="M85.4,35.7c0-2.2,1.7-3.8,4-3.8s4,1.6,4,3.8s-1.7,3.8-4,3.8S85.4,37.9,85.4,35.7z M91.4,35.7
				c0-1.2-0.9-2.1-1.9-2.1c-1.1,0-2,0.8-2,2.1s0.9,2.1,2,2.1C90.5,37.8,91.4,36.9,91.4,35.7z"/>
			<path class="st5" d="M97.5,36.1v-4h2V36c0,1.2,0.5,1.7,1.4,1.7c0.8,0,1.4-0.5,1.4-1.7v-3.9h2v4c0,2.2-1.3,3.4-3.4,3.4
				C98.7,39.4,97.5,38.2,97.5,36.1z"/>
			<path class="st5" d="M115.1,34.8c0,1.6-1.2,2.7-3.2,2.7h-1.3v1.9h-2v-7.2h3.3C113.9,32.1,115.1,33.1,115.1,34.8z M113.1,34.8
				c0-0.7-0.4-1.1-1.3-1.1h-1.1v2.1h1.1C112.6,35.8,113.1,35.4,113.1,34.8z"/>
		</g>
		<g>
			<path class="st7" d="M48.2,20.1c-5.9,0-10.7,4.8-10.7,10.8c0,0.7,0.1,1.3,0.2,1.9c1.3-0.3,2.6-0.7,3.9-1.1c0-0.3,0-0.5,0-0.8
				c0-3.7,3-6.7,6.7-6.7c1.4,0,2.8,0.5,4,1.3c1-0.9,2-1.8,2.9-2.8C53.2,21,50.7,20.1,48.2,20.1L48.2,20.1z M38.4,35.4
				c2.5,5.4,8.9,7.7,14.3,5.1c3.8-1.8,6.2-5.5,6.2-9.7c0-0.2,0-0.4,0-0.6c-0.1,0.1-0.3,0.2-0.5,0.3l0,0c-1.2,0.7-2.4,1.3-3.7,1.9
				c-0.9,3.6-4.5,5.8-8.1,4.9c-1.3-0.3-2.5-1-3.4-2c-0.9,0.1-1.9,0.1-2.9,0.1C39.8,35.4,39.1,35.4,38.4,35.4L38.4,35.4z"/>
		</g>
		<g>
			<path class="st8" d="M45.9,36.4c2,0,3.9-1,5.2-2.6c0.9-0.3,1.9-0.6,2.8-1c-0.8,2.4-3.1,4-5.7,4C47.4,36.8,46.6,36.7,45.9,36.4
				L45.9,36.4z"/>
		</g>
		<g>
			<path class="st8" d="M42.2,31.4c0.6-0.2,1.1-0.5,1.7-0.7c0.4-2.9,2.6-5.2,5.5-5.7c-0.4-0.1-0.8-0.1-1.2-0.1c-3.3,0-6,2.7-6,6
				c0,0.1,0,0.3,0,0.4C42.1,31.3,42.1,31.3,42.2,31.4L42.2,31.4z"/>
		</g>
		<g>
			<path class="st7" d="M34.1,34.2c2.1,0.4,4.1,0.5,6.2,0.5c6.2,0,12.3-1.6,17.7-4.7c1.2-0.7,2-2,2-3.5c-0.1-1.8-0.7-3.5-1.7-5.1
				c-0.1-0.2-0.3-0.3-0.6-0.3c-0.2,0-0.4,0.1-0.5,0.2C51.5,28.5,43.2,33.1,34.1,34.2z"/>
		</g>
	</g>
</g>
</svg>
