<?xml version="1.0" encoding="utf-8"?>
<!-- Generator: Adobe Illustrator 25.0.0, SVG Export Plug-In . SVG Version: 6.00 Build 0)  -->
<svg version="1.1" id="Layer_1" xmlns="http://www.w3.org/2000/svg" xmlns:xlink="http://www.w3.org/1999/xlink" x="0px" y="0px"
	 viewBox="0 0 156 241.9" style="enable-background:new 0 0 156 241.9;" xml:space="preserve">
<style type="text/css">
	.st0{clip-path:url(#SVGID_2_);fill:#29879F;}
	.st1{clip-path:url(#SVGID_2_);}
	.st2{fill-rule:evenodd;clip-rule:evenodd;fill:#5294AA;}
	.st3{fill:none;}
	.st4{fill:#FFFFFF;}
	.st5{font-family:'Montserrat-ExtraBold';}
	.st6{font-size:10.3101px;}
	.st7{fill-rule:evenodd;clip-rule:evenodd;fill:#FFFFFF;}
	.st8{fill-rule:evenodd;clip-rule:evenodd;fill:#B2B3B3;}
</style>
<g>
	<defs>
		<rect id="SVGID_1_" x="-0.2" width="156" height="241.9"/>
	</defs>
	<clipPath id="SVGID_2_">
		<use xlink:href="#SVGID_1_"  style="overflow:visible;"/>
	</clipPath>
	<rect x="-0.2" class="st0" width="156" height="241.9"/>
	<g class="st1">
		<g>
			<path class="st2" d="M88.7,139.1c-41.6,0-75.3,33.7-75.3,75.3c0,4.7,0.4,9.4,1.3,13.8c9.3-2.2,18.4-4.9,27.4-8.1
				c-0.2-1.9-0.3-3.8-0.3-5.8c0-26,21.1-47.1,47.1-47.1c10.5,0,20.2,3.5,28.1,9.3c7.2-6.2,14-12.8,20.5-19.8
				C124.1,145.8,107.2,139.1,88.7,139.1L88.7,139.1z M20.5,246.5c12,25.6,38.1,43.3,68.2,43.3c41.6,0,75.3-33.7,75.3-75.3
				c0-1.5,0-3-0.1-4.4c-1,0.8-2.1,1.5-3.2,2.2c-0.1,0.1-0.3,0.2-0.4,0.3c-8.4,4.9-17,9.3-25.8,13.1c-5,20.6-23.6,35.9-45.7,35.9
				c-13.8,0-26.3-6-35-15.6c-6.6,0.5-13.4,0.8-20.1,0.8C29.3,246.8,24.9,246.7,20.5,246.5L20.5,246.5z"/>
			<path class="st2" d="M72.7,253.2c14.7-0.2,27.7-7.2,36.2-18c6.6-2,13.1-4.4,19.5-7c-2.7,7.7-7.5,14.3-13.8,19.3
				c-7.1,5.6-16.1,8.9-25.9,8.9C83,256.4,77.5,255.3,72.7,253.2L72.7,253.2z"/>
			<path class="st2" d="M46.9,218.4c4-1.6,8-3.3,12-5c2.8-20.3,18.5-36.4,38.5-39.9c-2.8-0.6-5.7-0.9-8.7-0.9
				c-11.6,0-22,4.7-29.6,12.3c-7.6,7.6-12.3,18.1-12.3,29.6c0,1,0,1.9,0.1,2.6C46.8,217.5,46.9,217.9,46.9,218.4L46.9,218.4z"/>
			<path class="st2" d="M-10.1,238c14.1,2.7,29.5,3.7,43.7,3.7c43.6,0,86.4-11.7,124-33.6c8.7-5,14-14.2,14-24.3
				c0-10.8-5.9-26.5-11.8-35.7c-0.9-1.5-2.4-2.3-4-2.3c-1.4,0-2.7,0.6-3.6,1.6C112.3,197.4,53.4,230-10.1,238L-10.1,238z"/>
		</g>
	</g>
</g>
<path class="st3" d="M146.2,241.9H10.2c-5.5,0-9.9-4.5-9.9-9.9V9.9C0.2,4.5,4.7,0,10.2,0h136.1c5.5,0,9.9,4.5,9.9,9.9v222
	C156.2,237.4,151.7,241.9,146.2,241.9z"/>
<g>
	<g>
		<path class="st4" d="M33.8,100.2c0-3.5,0-6.9,0.1-8.7h0c-0.9,3.1-4,11.6-6,16.9h-1.7c-1.5-4.4-4.7-13.5-5.7-16.9h-0.1
			c0.1,2.1,0.2,6.2,0.2,9.3v7.5h-1.7V90.1h2.6c2.1,5.8,4.9,13.6,5.5,16.1h0c0.4-1.5,3.6-10.2,5.8-16.1h2.6v18.2h-1.7V100.2z"/>
		<path class="st4" d="M49.4,104.6c0,1.6,0,3.1,0.1,3.7h-1.6c-0.1-0.4-0.1-1.3-0.1-2.3c-0.5,1.4-1.9,2.5-4,2.5c-1.9,0-4-0.7-4-4.5
			v-9h1.7v8.6c0,1.8,0.6,3.4,2.8,3.4c2.1,0,3.5-1.4,3.5-4.6v-7.4h1.7V104.6z"/>
		<path class="st4" d="M53.9,104.6c0.3,1.7,1.5,2.6,3.2,2.6c2.1,0,2.8-1.2,2.8-2.4c0-1.3-0.9-2.1-3.2-2.7c-3.1-0.8-4-2-4-3.7
			c0-1.8,1.3-3.6,4.2-3.6c3.1,0,4.2,1.8,4.4,3.7h-1.6c-0.3-1.2-0.9-2.3-2.8-2.3c-1.7,0-2.5,0.9-2.5,2.1c0,1.1,0.5,1.7,2.8,2.3
			c3.3,0.9,4.3,2,4.3,4.1c0,2.4-1.8,3.9-4.6,3.9c-2.5,0-4.6-1.2-4.9-4H53.9z"/>
		<path class="st4" d="M64.8,95.1c2.2,6.7,3.4,10,3.8,11.6h0c0.4-1.4,1.6-5.2,3.7-11.6H74l-4.7,13.8c-1.3,3.9-2.2,4.9-4.6,4.9
			c-0.3,0-0.8,0-1.1-0.1v-1.5c0.3,0.1,0.8,0.1,1.1,0.1c1.8,0,2.2-1.5,3-3.7L63,95.1H64.8z"/>
		<path class="st4" d="M85.2,105.6c0,0.9,0.1,2.1,0.2,2.8h-1.6c-0.1-0.5-0.2-1.2-0.2-2.2c-0.5,1.4-1.9,2.5-4.1,2.5
			c-3.2,0-4.1-2.2-4.1-4c0-1.8,1.1-4.2,5.9-4.2c0.9,0,1.6,0,2.2,0V99c0-1.3-0.4-2.8-2.9-2.8c-2.1,0-2.9,0.9-3.1,2.6h-1.6
			c0.2-2.3,1.5-4,4.8-4c2.6,0,4.4,1.1,4.4,4V105.6z M83.6,101.7c-0.5,0-1.4,0-2.3,0c-3.5,0-4.2,1.4-4.2,2.8c0,1.4,0.9,2.6,2.7,2.6
			c2.8,0,3.8-1.9,3.8-5.1V101.7z"/>
		<path class="st4" d="M91,96.5v11.8h-1.7V96.5h-2.1v-1.4h2.1v-1.8c0-2.3,0.7-4.3,3.4-4.3c0.4,0,1,0.1,1.3,0.2l-0.1,1.5
			c-0.3-0.1-0.7-0.1-1.1-0.1c-1.3,0-1.8,0.8-1.8,2.6v2h4.4v-1.7c0-2.2,0.7-4.5,3.4-4.5c0.4,0,1,0.1,1.3,0.2l-0.1,1.4
			c-0.3-0.1-0.8-0.2-1.1-0.2c-1.3,0-1.8,0.9-1.8,2.8v1.9h2.6v1.4h-2.6v11.8h-1.7V96.5H91z"/>
		<path class="st4" d="M110.3,105.6c0,0.9,0.1,2.1,0.2,2.8H109c-0.1-0.5-0.2-1.2-0.2-2.2c-0.5,1.4-1.9,2.5-4.1,2.5
			c-3.2,0-4.1-2.2-4.1-4c0-1.8,1.1-4.2,5.9-4.2c0.9,0,1.6,0,2.2,0V99c0-1.3-0.4-2.8-2.9-2.8c-2.1,0-2.9,0.9-3.1,2.6H101
			c0.2-2.3,1.5-4,4.8-4c2.6,0,4.4,1.1,4.4,4V105.6z M108.7,101.7c-0.5,0-1.4,0-2.3,0c-3.5,0-4.2,1.4-4.2,2.8c0,1.4,0.9,2.6,2.7,2.6
			c2.8,0,3.8-1.9,3.8-5.1V101.7z"/>
	</g>
</g>
<g>
	<g>
		<path class="st4" d="M20,142.7h4.2v0.6h-3.5v2.7H24v0.6h-3.3v3.5H20V142.7z"/>
		<path class="st4" d="M25.4,142.3H26v1.1h-0.7V142.3z M25.4,144.7H26v5.4h-0.7V144.7z"/>
		<path class="st4" d="M27.7,146.4c0-1.1,0-1.5,0-1.7h0.7c0,0.1,0,0.7,0,0.9c0.2-0.5,0.7-1,1.6-1c0.9,0,1.7,0.5,1.7,2v3.4H31v-3.4
			c0-0.8-0.3-1.5-1.2-1.5c-1.1,0-1.5,0.8-1.5,2v2.8h-0.7V146.4z"/>
		<path class="st4" d="M36.9,149c0,0.4,0,0.9,0.1,1.1h-0.6c0-0.2-0.1-0.5-0.1-0.9c-0.2,0.6-0.8,1-1.7,1c-1.3,0-1.7-0.9-1.7-1.6
			c0-0.7,0.5-1.7,2.4-1.7c0.4,0,0.6,0,0.9,0v-0.6c0-0.5-0.1-1.1-1.2-1.1c-0.8,0-1.2,0.4-1.3,1h-0.7c0.1-0.9,0.6-1.6,2-1.6
			c1.1,0,1.8,0.5,1.8,1.6V149z M36.2,147.4c-0.2,0-0.6,0-0.9,0c-1.4,0-1.7,0.6-1.7,1.1c0,0.6,0.4,1.1,1.1,1.1c1.1,0,1.5-0.8,1.5-2.1
			V147.4z"/>
		<path class="st4" d="M38.5,146.4c0-1.1,0-1.5,0-1.7h0.7c0,0.1,0,0.7,0,0.9c0.2-0.5,0.7-1,1.6-1c0.9,0,1.7,0.5,1.7,2v3.4h-0.7v-3.4
			c0-0.8-0.3-1.5-1.2-1.5c-1.1,0-1.5,0.8-1.5,2v2.8h-0.7V146.4z"/>
		<path class="st4" d="M48.1,148.4c-0.2,1-0.9,1.8-2.1,1.8c-1.5,0-2.2-1-2.2-2.8c0-1.5,0.7-2.8,2.3-2.8c1.3,0,1.9,0.9,2,1.8h-0.7
			c-0.1-0.7-0.5-1.2-1.4-1.2c-1.1,0-1.5,0.9-1.5,2.2c0,1.4,0.5,2.2,1.5,2.2c0.8,0,1.2-0.5,1.4-1.2H48.1z"/>
		<path class="st4" d="M49.5,147.5c0,1.2,0.5,2.1,1.5,2.1c0.9,0,1.2-0.7,1.3-1h0.7c-0.1,0.6-0.6,1.6-2.1,1.6c-1.7,0-2.2-1.4-2.2-2.8
			c0-1.3,0.6-2.8,2.2-2.8c1.6,0,2.1,1.3,2.1,2.5c0,0,0,0.4,0,0.4H49.5z M52.5,147c0-1-0.4-1.8-1.4-1.8c-1.2,0-1.4,1.1-1.5,1.8H52.5z
			"/>
		<path class="st4" d="M53.5,151.3c0.2-0.4,0.6-1.5,0.7-2.7h0.7c-0.1,1.1-0.4,2.1-0.7,2.7H53.5z"/>
		<path class="st4" d="M59.5,147.7l-0.8,2.4H58c0.7-2,1.7-5.1,2.5-7.4h0.9l2.6,7.4h-0.8l-0.8-2.4H59.5z M62.1,147
			c-0.7-2-1.1-3.2-1.2-3.7h0c-0.2,0.9-0.6,2-1.2,3.7H62.1z"/>
		<path class="st4" d="M68.8,148.4c-0.2,1-0.9,1.8-2.1,1.8c-1.5,0-2.2-1-2.2-2.8c0-1.5,0.7-2.8,2.3-2.8c1.3,0,1.9,0.9,2,1.8h-0.7
			c-0.1-0.7-0.5-1.2-1.4-1.2c-1.1,0-1.5,0.9-1.5,2.2c0,1.4,0.5,2.2,1.5,2.2c0.8,0,1.2-0.5,1.4-1.2H68.8z"/>
		<path class="st4" d="M73.8,148.4c-0.2,1-0.9,1.8-2.1,1.8c-1.5,0-2.2-1-2.2-2.8c0-1.5,0.7-2.8,2.3-2.8c1.3,0,1.9,0.9,2,1.8h-0.7
			c-0.1-0.7-0.5-1.2-1.4-1.2c-1.1,0-1.5,0.9-1.5,2.2c0,1.4,0.5,2.2,1.5,2.2c0.8,0,1.2-0.5,1.4-1.2H73.8z"/>
		<path class="st4" d="M79.2,147.3c0,1.5-0.7,2.9-2.3,2.9c-1.6,0-2.2-1.4-2.2-2.8c0-1.4,0.8-2.7,2.3-2.7
			C78.4,144.6,79.2,145.7,79.2,147.3z M75.3,147.3c0,1.3,0.5,2.2,1.6,2.2c1.1,0,1.6-1,1.6-2.3c0-1.2-0.5-2.1-1.6-2.1
			C75.8,145.2,75.3,146.1,75.3,147.3z"/>
		<path class="st4" d="M84.3,148.6c0,0.6,0,1.2,0,1.5h-0.6c0-0.1,0-0.5,0-0.9c-0.2,0.6-0.8,1-1.6,1c-0.7,0-1.6-0.3-1.6-1.8v-3.6h0.7
			v3.5c0,0.7,0.2,1.4,1.1,1.4c0.8,0,1.4-0.6,1.4-1.8v-3h0.7V148.6z"/>
		<path class="st4" d="M86,146.4c0-1.1,0-1.5,0-1.7h0.7c0,0.1,0,0.7,0,0.9c0.2-0.5,0.7-1,1.6-1c0.9,0,1.7,0.5,1.7,2v3.4h-0.7v-3.4
			c0-0.8-0.3-1.5-1.2-1.5c-1.1,0-1.5,0.8-1.5,2v2.8H86V146.4z"/>
		<path class="st4" d="M90.8,144.7h0.9v-1.6h0.7v1.6h1.1v0.6h-1.1v3.6c0,0.5,0.1,0.7,0.6,0.7c0.2,0,0.3,0,0.5,0v0.5
			c-0.2,0.1-0.5,0.1-0.6,0.1c-0.7,0-1.1-0.3-1.1-1.1v-3.8h-0.9V144.7z"/>
		<path class="st4" d="M94.4,142.3h0.7v1.1h-0.7V142.3z M94.4,144.7h0.7v5.4h-0.7V144.7z"/>
		<path class="st4" d="M96.7,146.4c0-1.1,0-1.5,0-1.7h0.7c0,0.1,0,0.7,0,0.9c0.2-0.5,0.7-1,1.6-1c0.9,0,1.7,0.5,1.7,2v3.4H100v-3.4
			c0-0.8-0.3-1.5-1.2-1.5c-1.1,0-1.5,0.8-1.5,2v2.8h-0.7V146.4z"/>
		<path class="st4" d="M106.3,149.7c0,1.7-0.7,2.6-2.2,2.6c-1.5,0-2-0.8-2-1.6h0.7c0.1,0.7,0.7,1,1.4,1c1.2,0,1.5-0.8,1.5-2.1v-0.5
			c-0.3,0.6-0.7,1-1.6,1c-1.3,0-2.1-1.1-2.1-2.7c0-1.7,0.9-2.8,2.2-2.8c0.8,0,1.3,0.4,1.5,0.8c0-0.3,0-0.6,0-0.7h0.7
			c0,0.2,0,0.8,0,1.5V149.7z M102.7,147.4c0,1.4,0.6,2.1,1.5,2.1c1.1,0,1.5-0.7,1.5-2.1c0-1.5-0.4-2.1-1.5-2.1
			C103.2,145.2,102.7,146.1,102.7,147.4z"/>
		<path class="st4" d="M25.9,158.3l-1.8,2.8c-1,1.5-1.4,1.9-2.5,1.9c-1.2,0-2-0.8-2-2c0-1,0.6-1.6,1.9-2.3c1.2-0.7,1.5-1,1.5-1.7
			c0-0.5-0.3-1-1-1c-0.7,0-1,0.5-1,1.1c0,0.5,0.2,0.9,0.9,1.5l4.4,4.3h-1l-4-4c-0.6-0.6-1-1.1-1-1.8c0-0.9,0.6-1.7,1.7-1.7
			c1,0,1.6,0.7,1.6,1.6c0,1-0.6,1.4-1.7,2.1c-1.2,0.7-1.6,1.2-1.6,1.9c0,0.8,0.5,1.3,1.3,1.3c0.9,0,1.3-0.6,2-1.6l1.5-2.4H25.9z"/>
		<path class="st4" d="M31.4,156.1h-2.2v-0.6h5.1v0.6h-2.2v6.8h-0.7V156.1z"/>
		<path class="st4" d="M38.8,161.8c0,0.4,0,0.9,0.1,1.1h-0.6c0-0.2-0.1-0.5-0.1-0.9c-0.2,0.6-0.8,1-1.7,1c-1.3,0-1.7-0.9-1.7-1.6
			c0-0.7,0.5-1.7,2.4-1.7c0.4,0,0.6,0,0.9,0v-0.6c0-0.5-0.1-1.1-1.2-1.1c-0.8,0-1.2,0.4-1.3,1H35c0.1-0.9,0.6-1.6,2-1.6
			c1.1,0,1.8,0.5,1.8,1.6V161.8z M38.1,160.2c-0.2,0-0.6,0-0.9,0c-1.4,0-1.7,0.6-1.7,1.1c0,0.6,0.4,1.1,1.1,1.1
			c1.1,0,1.5-0.8,1.5-2.1V160.2z"/>
		<path class="st4" d="M40.3,157.5c0.8,1.3,1.1,1.8,1.3,2.1h0c0.2-0.4,0.7-1.1,1.4-2.1h0.7l-1.7,2.6l1.8,2.8H43
			c-0.7-1.1-1.2-1.9-1.4-2.2h0c-0.2,0.3-0.7,1.1-1.4,2.2h-0.8l1.7-2.7l-1.7-2.7H40.3z"/>
		<path class="st4" d="M47.5,160.8c0.2,1.1,0.9,1.5,1.8,1.5c0.9,0,1.6-0.5,1.6-1.4c0-0.9-0.4-1.2-1.8-1.7c-1.5-0.5-2.1-0.9-2.1-2
			c0-1.1,0.8-1.9,2.2-1.9c1.5,0,2.2,0.9,2.2,1.9h-0.7c-0.1-0.8-0.6-1.3-1.6-1.3c-0.9,0-1.4,0.5-1.4,1.2c0,0.7,0.4,1.1,1.6,1.4
			c1.8,0.6,2.2,1.2,2.2,2.2c0,1.2-0.9,2.1-2.4,2.1c-1.5,0-2.4-0.8-2.5-2.1H47.5z"/>
		<path class="st4" d="M56.7,161.4c0,0.6,0,1.2,0,1.5h-0.6c0-0.1,0-0.5,0-0.9c-0.2,0.6-0.8,1-1.6,1c-0.7,0-1.6-0.3-1.6-1.8v-3.6h0.7
			v3.5c0,0.7,0.2,1.4,1.1,1.4c0.8,0,1.4-0.6,1.4-1.8v-3h0.7V161.4z"/>
		<path class="st4" d="M59,162.2v2.9h-0.7v-5.9c0-0.7,0-1.3,0-1.6H59c0,0.2,0,0.6,0,0.9c0.3-0.6,0.8-1,1.7-1c1.2,0,2,1,2,2.7
			c0,1.8-1,2.9-2.2,2.9C59.8,163,59.3,162.6,59,162.2z M62.1,160.1c0-1.3-0.5-2.1-1.5-2.1c-1.2,0-1.5,0.9-1.5,2.2
			c0,1.2,0.2,2.1,1.5,2.1C61.5,162.4,62.1,161.6,62.1,160.1z"/>
		<path class="st4" d="M64.3,160.3c0,1.2,0.5,2.1,1.5,2.1c0.9,0,1.2-0.7,1.3-1h0.7c-0.1,0.6-0.6,1.6-2.1,1.6c-1.7,0-2.2-1.4-2.2-2.8
			c0-1.3,0.6-2.8,2.2-2.8c1.6,0,2.1,1.3,2.1,2.5c0,0,0,0.4,0,0.4H64.3z M67.3,159.8c0-1-0.4-1.8-1.4-1.8c-1.2,0-1.4,1.1-1.5,1.8
			H67.3z"/>
		<path class="st4" d="M69.2,159.3c0-0.8,0-1.6,0-1.8h0.7c0,0.3,0,0.6,0,1.1c0.3-0.7,0.9-1.2,1.8-1.2v0.7c-1.2,0.1-1.8,0.9-1.8,2
			v2.7h-0.7V159.3z"/>
		<path class="st4" d="M72.6,157.5c0.8,2.4,1.3,4,1.5,4.7h0c0.1-0.6,1.2-3.8,1.5-4.7h0.7l-1.9,5.4h-0.8l-1.8-5.4H72.6z"/>
		<path class="st4" d="M77.2,155.1h0.7v1.1h-0.7V155.1z M77.2,157.5h0.7v5.4h-0.7V157.5z"/>
		<path class="st4" d="M79.7,161.4c0.1,0.7,0.6,1,1.3,1c0.8,0,1.1-0.5,1.1-1c0-0.5-0.4-0.8-1.3-1.1c-1.3-0.3-1.6-0.8-1.6-1.5
			c0-0.7,0.5-1.4,1.7-1.4c1.2,0,1.7,0.7,1.8,1.5h-0.7c-0.1-0.5-0.4-1-1.1-1c-0.7,0-1,0.3-1,0.8c0,0.4,0.2,0.7,1.2,0.9
			c1.3,0.4,1.8,0.8,1.8,1.6c0,1-0.7,1.6-1.8,1.6c-1,0-1.9-0.5-2-1.6H79.7z"/>
		<path class="st4" d="M88.3,160.1c0,1.5-0.7,2.9-2.3,2.9c-1.6,0-2.2-1.4-2.2-2.8c0-1.4,0.8-2.7,2.3-2.7
			C87.4,157.4,88.3,158.5,88.3,160.1z M84.4,160.1c0,1.3,0.5,2.2,1.6,2.2c1.1,0,1.6-1,1.6-2.3c0-1.2-0.5-2.1-1.6-2.1
			C84.9,158,84.4,158.9,84.4,160.1z"/>
		<path class="st4" d="M89.5,159.3c0-0.8,0-1.6,0-1.8h0.7c0,0.3,0,0.6,0,1.1c0.3-0.7,0.9-1.2,1.8-1.2v0.7c-1.2,0.1-1.8,0.9-1.8,2
			v2.7h-0.7V159.3z"/>
	</g>
</g>
<g>
	<g>
		<text transform="matrix(1 0 0 1 45.6971 30.2843)" class="st4 st5 st6">SUDI JAYA</text>
		<text transform="matrix(1 0 0 1 45.6971 39.215)" class="st4 st5 st6">G R O U P</text>
	</g>
	<g>
		<path class="st7" d="M30.3,20.1c-5.9,0-10.7,4.8-10.7,10.7c0,0.7,0.1,1.3,0.2,2c1.3-0.3,2.6-0.7,3.9-1.2c0-0.3,0-0.5,0-0.8
			c0-3.7,3-6.7,6.7-6.7c1.5,0,2.9,0.5,4,1.3c1-0.9,2-1.8,2.9-2.8C35.4,21.1,33,20.1,30.3,20.1L30.3,20.1z M20.6,35.4
			c1.7,3.6,5.4,6.2,9.7,6.2c5.9,0,10.7-4.8,10.7-10.7c0-0.2,0-0.4,0-0.6c-0.1,0.1-0.3,0.2-0.5,0.3c0,0,0,0-0.1,0
			c-1.2,0.7-2.4,1.3-3.7,1.9c-0.7,2.9-3.4,5.1-6.5,5.1c-2,0-3.8-0.9-5-2.2c-0.9,0.1-1.9,0.1-2.9,0.1C21.9,35.5,21.3,35.5,20.6,35.4
			L20.6,35.4z"/>
		<path class="st8" d="M28.1,36.4c2.1,0,3.9-1,5.2-2.6c0.9-0.3,1.9-0.6,2.8-1c-0.4,1.1-1.1,2-2,2.7c-1,0.8-2.3,1.3-3.7,1.3
			C29.5,36.8,28.8,36.7,28.1,36.4L28.1,36.4z"/>
		<path class="st8" d="M24.4,31.4c0.6-0.2,1.1-0.5,1.7-0.7c0.4-2.9,2.6-5.2,5.5-5.7c-0.4-0.1-0.8-0.1-1.2-0.1
			c-1.6,0-3.1,0.7-4.2,1.8c-1.1,1.1-1.8,2.6-1.8,4.2c0,0.1,0,0.3,0,0.4C24.4,31.3,24.4,31.4,24.4,31.4L24.4,31.4z"/>
		<path class="st7" d="M16.3,34.2c2,0.4,4.2,0.5,6.2,0.5c6.2,0,12.3-1.7,17.7-4.8c1.2-0.7,2-2,2-3.5c0-1.5-0.8-3.8-1.7-5.1
			c-0.1-0.2-0.3-0.3-0.6-0.3c-0.2,0-0.4,0.1-0.5,0.2C33.7,28.4,25.3,33.1,16.3,34.2L16.3,34.2z"/>
	</g>
</g>
<g>
	<g>
		<path class="st4" d="M69.4,201.9h-2.8l-0.2,1h3.2l-0.4,1.2h-4.6l1.2-5.5h4.6l-0.3,1.2H67l-0.2,0.8h2.8L69.4,201.9z"/>
		<path class="st4" d="M72.1,200.1c0.2,0.5,0.4,0.9,0.4,1.1h0c0.2-0.3,0.5-0.7,0.9-1.1h1.7l-1.8,1.9l1,2.1h-1.8
			c-0.2-0.5-0.4-1-0.5-1.2h0c-0.1,0.2-0.5,0.7-0.9,1.2h-1.8l1.9-2.1l-1-2H72.1z"/>
		<path class="st4" d="M76.4,203.8l-0.4,2h-1.6l1-4.5c0.1-0.6,0.2-1,0.2-1.2h1.6c0,0.1,0,0.2-0.1,0.4c0.3-0.3,0.6-0.5,1.3-0.5
			c0.9,0,1.5,0.7,1.5,1.7c0,1.4-0.9,2.6-2.4,2.6C76.9,204.2,76.5,204,76.4,203.8z M78.2,201.7c0-0.4-0.2-0.7-0.6-0.7
			c-0.5,0-0.8,0.4-0.9,1.1c-0.1,0.6,0.1,1,0.6,1C77.9,203.1,78.2,202.3,78.2,201.7z"/>
		<path class="st4" d="M82,202.4c0,0,0,0.1,0,0.1c0,0.4,0.2,0.6,0.6,0.6c0.4,0,0.5-0.1,0.7-0.3h1.6c-0.3,0.7-1,1.4-2.4,1.4
			c-1.6,0-2.1-0.9-2.1-1.9c0-1.2,0.8-2.4,2.6-2.4c1.5,0,2.1,0.8,2.1,1.8c0,0.3,0,0.5-0.1,0.7H82z M83.6,201.6c0,0,0-0.1,0-0.1
			c0-0.3-0.2-0.5-0.6-0.5c-0.4,0-0.7,0.3-0.8,0.7H83.6z"/>
		<path class="st4" d="M86,201.3c0.1-0.5,0.2-1,0.3-1.3h1.6c0,0.2,0,0.5-0.1,0.8c0.3-0.6,0.8-0.9,1.5-0.9l-0.4,1.5
			c-0.8,0-1.3,0.2-1.6,1.3l-0.3,1.4h-1.7L86,201.3z"/>
		<path class="st4" d="M89.9,200.1h1.6l-0.9,4.1H89L89.9,200.1z M90.2,198.4h1.7l-0.2,1.1H90L90.2,198.4z"/>
		<path class="st4" d="M93.4,202.4c0,0,0,0.1,0,0.1c0,0.4,0.2,0.6,0.6,0.6c0.4,0,0.5-0.1,0.7-0.3h1.6c-0.3,0.7-1,1.4-2.4,1.4
			c-1.6,0-2.1-0.9-2.1-1.9c0-1.2,0.8-2.4,2.6-2.4c1.5,0,2.1,0.8,2.1,1.8c0,0.3,0,0.5-0.1,0.7H93.4z M95,201.6c0,0,0-0.1,0-0.1
			c0-0.3-0.2-0.5-0.6-0.5c-0.4,0-0.7,0.3-0.8,0.7H95z"/>
		<path class="st4" d="M97.4,201.2c0.1-0.5,0.2-0.9,0.2-1.1h1.6c0,0.1,0,0.3-0.1,0.4c0.3-0.3,0.7-0.6,1.4-0.6c0.9,0,1.4,0.6,1.2,1.7
			l-0.5,2.5h-1.7l0.5-2.4c0.1-0.4,0-0.7-0.4-0.7c-0.4,0-0.7,0.3-0.8,0.9l-0.4,2.1h-1.6L97.4,201.2z"/>
		<path class="st4" d="M106.9,202.6c-0.3,0.9-1,1.6-2.5,1.6c-1.5,0-2-0.9-2-1.8c0-1.2,0.7-2.5,2.6-2.5c1.8,0,2.1,1.1,2.1,1.6h-1.6
			c0-0.3-0.1-0.6-0.5-0.6c-0.6,0-0.9,0.9-0.9,1.6c0,0.4,0.2,0.7,0.5,0.7c0.3,0,0.6-0.2,0.7-0.6H106.9z"/>
		<path class="st4" d="M109.1,202.4c0,0,0,0.1,0,0.1c0,0.4,0.2,0.6,0.6,0.6c0.4,0,0.5-0.1,0.7-0.3h1.6c-0.3,0.7-1,1.4-2.4,1.4
			c-1.6,0-2.1-0.9-2.1-1.9c0-1.2,0.8-2.4,2.6-2.4c1.5,0,2.1,0.8,2.1,1.8c0,0.3,0,0.5-0.1,0.7H109.1z M110.6,201.6c0,0,0-0.1,0-0.1
			c0-0.3-0.2-0.5-0.6-0.5c-0.4,0-0.7,0.3-0.8,0.7H110.6z"/>
		<path class="st4" d="M89.6,211.6c0.2-0.9,0.4-1.9,0.6-2.6h0c-0.5,1.1-1.1,2.5-2,4.4h-1.4c0-1.7-0.1-3.3-0.1-4.4h0
			c-0.1,0.6-0.3,1.7-0.5,2.6l-0.4,1.8h-1.5l1.2-5.5h2.4c0.1,1.2,0.1,2.7,0.1,3.5h0c0.3-0.8,1-2.2,1.6-3.5H92l-1.2,5.5h-1.7
			L89.6,211.6z"/>
		<path class="st4" d="M96.5,212.3c-0.1,0.5-0.2,1-0.2,1.2h-1.6c0-0.1,0-0.3,0.1-0.4c-0.3,0.3-0.7,0.6-1.4,0.6c-1,0-1.3-0.6-1.3-1.2
			c0-1.1,1-1.4,2.1-1.5c0.3,0,0.8,0,1.1-0.1l0-0.1c0.1-0.3-0.1-0.5-0.5-0.5c-0.4,0-0.5,0.1-0.6,0.4h-1.6c0.1-0.6,0.6-1.3,2.2-1.3
			c1.9,0,2.2,0.9,2,1.7L96.5,212.3z M95.1,211.7c-0.2,0-0.5,0-0.7,0c-0.3,0-0.7,0.1-0.7,0.5c0,0.2,0.1,0.3,0.4,0.3
			C94.6,212.5,94.9,212.3,95.1,211.7L95.1,211.7z"/>
		<path class="st4" d="M99.4,211c0.4-0.5,1.1-1,1.6-1.6h1.9c-0.7,0.5-1.3,1.1-1.9,1.6c0.1,0.3,1,2.2,1.1,2.5h-1.8
			c0-0.1-0.5-1.5-0.5-1.6l-0.7,0.5l-0.2,1.1h-1.6l1.2-5.7h1.6L99.4,211z"/>
		<path class="st4" d="M104.3,211.8c0,0,0,0.1,0,0.1c0,0.4,0.2,0.6,0.6,0.6c0.4,0,0.5-0.1,0.7-0.3h1.6c-0.3,0.7-1,1.4-2.4,1.4
			c-1.6,0-2.1-0.9-2.1-1.9c0-1.2,0.8-2.4,2.6-2.4c1.5,0,2.1,0.8,2.1,1.8c0,0.3,0,0.5-0.1,0.7H104.3z M105.9,210.9c0,0,0-0.1,0-0.1
			c0-0.3-0.2-0.5-0.6-0.5c-0.4,0-0.7,0.3-0.8,0.7H105.9z"/>
		<path class="st4" d="M109.3,212.2c0,0.2,0.2,0.4,0.6,0.4c0.2,0,0.5-0.1,0.5-0.3c0-0.2-0.2-0.3-0.7-0.4c-1.3-0.3-1.5-0.7-1.5-1.2
			c0-0.8,0.7-1.4,2-1.4c1.6,0,2.1,0.7,2.1,1.4h-1.5c0-0.2-0.2-0.4-0.6-0.4c-0.2,0-0.4,0-0.4,0.3c0,0.2,0.2,0.3,0.7,0.4
			c1.3,0.3,1.6,0.7,1.6,1.3c0,0.9-0.9,1.4-2.2,1.4c-1.3,0-2.1-0.5-2.1-1.4H109.3z"/>
		<path class="st4" d="M68.8,217.3h2.5c1.7,0,2.6,1.1,2.6,2.4c0,1.9-1.3,3.1-3.4,3.1h-2.8L68.8,217.3z M69.6,221.6h0.9
			c1.1,0,1.6-0.9,1.6-1.8c0-0.8-0.4-1.2-1.2-1.2h-0.7L69.6,221.6z"/>
		<path class="st4" d="M74.9,218.7h1.6l-0.9,4.1H74L74.9,218.7z M75.2,217.1h1.7l-0.2,1.1H75L75.2,217.1z"/>
		<path class="st4" d="M79.1,219.8l-0.6,3h-1.7l0.6-3h-0.6l0.2-1.1h0.6l0-0.2c0.2-1.1,0.8-1.5,1.9-1.5c0.2,0,0.5,0,0.7,0.1l-0.2,1
			c-0.1,0-0.2,0-0.2,0c-0.3,0-0.4,0.1-0.4,0.4l-0.1,0.3h1.3l0-0.2c0.2-1.1,0.8-1.5,1.8-1.5c0.2,0,0.5,0,0.7,0.1l-0.2,1
			c-0.1,0-0.1,0-0.2,0c-0.3,0-0.4,0.1-0.4,0.4l-0.1,0.3H83l-0.2,1.1h-0.7l-0.6,3h-1.7l0.6-3H79.1z"/>
		<path class="st4" d="M84.6,221.1c0,0,0,0.1,0,0.1c0,0.4,0.2,0.6,0.6,0.6c0.4,0,0.5-0.1,0.7-0.3h1.6c-0.3,0.7-1,1.4-2.4,1.4
			c-1.6,0-2.1-0.9-2.1-1.9c0-1.2,0.8-2.4,2.6-2.4c1.5,0,2.1,0.8,2.1,1.8c0,0.3,0,0.5-0.1,0.7H84.6z M86.2,220.3c0,0,0-0.1,0-0.1
			c0-0.3-0.2-0.5-0.6-0.5c-0.4,0-0.7,0.3-0.8,0.7H86.2z"/>
		<path class="st4" d="M88.5,220c0.1-0.5,0.2-1,0.3-1.3h1.6c0,0.2,0,0.5-0.1,0.8c0.3-0.6,0.8-0.9,1.5-0.9l-0.4,1.5
			c-0.8,0-1.3,0.2-1.6,1.3l-0.3,1.4h-1.7L88.5,220z"/>
		<path class="st4" d="M93.4,221.1c0,0,0,0.1,0,0.1c0,0.4,0.2,0.6,0.6,0.6c0.4,0,0.5-0.1,0.7-0.3h1.6c-0.3,0.7-1,1.4-2.4,1.4
			c-1.6,0-2.1-0.9-2.1-1.9c0-1.2,0.8-2.4,2.6-2.4c1.5,0,2.1,0.8,2.1,1.8c0,0.3,0,0.5-0.1,0.7H93.4z M95,220.3c0,0,0-0.1,0-0.1
			c0-0.3-0.2-0.5-0.6-0.5c-0.4,0-0.7,0.3-0.8,0.7H95z"/>
		<path class="st4" d="M97.4,219.8c0.1-0.5,0.2-0.9,0.2-1.1h1.6c0,0.1,0,0.3-0.1,0.4c0.3-0.3,0.7-0.6,1.4-0.6c0.9,0,1.4,0.6,1.2,1.7
			l-0.5,2.5h-1.7l0.5-2.4c0.1-0.4,0-0.7-0.4-0.7c-0.4,0-0.7,0.3-0.8,0.9l-0.4,2.1h-1.6L97.4,219.8z"/>
		<path class="st4" d="M106.9,221.3c-0.3,0.9-1,1.6-2.5,1.6c-1.5,0-2-0.9-2-1.8c0-1.2,0.7-2.5,2.6-2.5c1.8,0,2.1,1.1,2.1,1.6h-1.6
			c0-0.3-0.1-0.6-0.5-0.6c-0.6,0-0.9,0.9-0.9,1.6c0,0.4,0.2,0.7,0.5,0.7c0.3,0,0.6-0.2,0.7-0.6H106.9z"/>
		<path class="st4" d="M109.1,221.1c0,0,0,0.1,0,0.1c0,0.4,0.2,0.6,0.6,0.6c0.4,0,0.5-0.1,0.7-0.3h1.6c-0.3,0.7-1,1.4-2.4,1.4
			c-1.6,0-2.1-0.9-2.1-1.9c0-1.2,0.8-2.4,2.6-2.4c1.5,0,2.1,0.8,2.1,1.8c0,0.3,0,0.5-0.1,0.7H109.1z M110.6,220.3c0,0,0-0.1,0-0.1
			c0-0.3-0.2-0.5-0.6-0.5c-0.4,0-0.7,0.3-0.8,0.7H110.6z"/>
	</g>
</g>
<g>
	<g>
		<path class="st4" d="M21.1,128.6c0.2,1.4,1.2,2.2,2.7,2.2c1.6,0,2.3-0.7,2.3-1.9c0-1.3-0.7-1.9-2.8-2.5c-3-0.9-4.1-1.9-4.1-3.9
			c0-2.4,1.9-3.8,4.4-3.8c3.1,0,4.5,1.7,4.6,3.8h-2.4c-0.2-1.1-0.8-1.9-2.3-1.9c-1.3,0-2,0.6-2,1.7c0,1.1,0.7,1.5,2.7,2.1
			c3.4,1,4.3,2.4,4.3,4.3c0,2.2-1.5,4-4.8,4c-2.9,0-4.7-1.5-4.9-4.1H21.1z"/>
		<path class="st4" d="M32.3,128c0,1.5,0.6,2.9,2.2,2.9c1.3,0,1.8-0.9,1.9-1.4h2.3c-0.4,1.5-1.6,3.2-4.3,3.2c-3.2,0-4.5-2.3-4.5-5.3
			c0-2.5,1.2-5.3,4.6-5.3c3.3,0,4.3,2.4,4.3,5c0,0.1,0,0.7,0,0.8H32.3z M36.6,126.4c0-1.3-0.6-2.4-2.1-2.4c-1.7,0-2.1,1.4-2.2,2.4
			H36.6z"/>
		<path class="st4" d="M39.6,122.4h1.5v-2.8h2.3v2.8h1.9v1.8h-1.9v5.6c0,0.7,0.2,1.1,1,1.1c0.3,0,0.4,0,0.7-0.1v1.6
			c-0.5,0.2-1.2,0.2-1.5,0.2c-1.8,0-2.5-0.7-2.5-2.5v-5.9h-1.5V122.4z"/>
		<path class="st4" d="M47,118.2h2.3v2.4H47V118.2z M47,122.4h2.3v10.1H47V122.4z"/>
		<path class="st4" d="M59.7,130c0,0.7,0.1,1.8,0.1,2.5h-2.1c-0.1-0.3-0.1-0.9-0.2-1.3c-0.4,0.9-1.4,1.5-2.9,1.5
			c-2.5,0-3.3-1.6-3.3-3.1c0-1.7,1.2-3.3,4.7-3.3c0.4,0,0.8,0,1.3,0v-0.8c0-0.9-0.3-1.6-1.6-1.6c-1.3,0-1.6,0.6-1.8,1.5h-2.3
			c0.1-1.6,1.1-3.2,4.1-3.2c2.3,0,3.9,0.8,3.9,3.3V130z M57.5,127.9c-0.4,0-0.8,0-1.4,0c-2,0-2.4,0.8-2.4,1.6c0,0.8,0.5,1.5,1.6,1.5
			c1.7,0,2.2-1.2,2.2-2.8V127.9z"/>
		<path class="st4" d="M62.3,125.6c0-2.1,0-2.7,0-3.2h2.3c0,0.2,0.1,0.9,0.1,1.4c0.4-0.8,1.4-1.6,2.9-1.6c2,0,3.2,1.3,3.2,3.7v6.6
			h-2.3v-6.2c0-1.3-0.4-2.2-1.7-2.2c-1.4,0-2,0.9-2,2.8v5.6h-2.3V125.6z"/>
		<path class="st4" d="M73.4,118.2h2.3v2.4h-2.3V118.2z M73.4,122.4h2.3v10.1h-2.3V122.4z"/>
		<path class="st4" d="M78.3,125.6c0-2.1,0-2.7,0-3.2h2.3c0,0.2,0.1,0.9,0.1,1.4c0.4-0.8,1.4-1.6,2.9-1.6c2,0,3.2,1.3,3.2,3.7v6.6
			h-2.3v-6.2c0-1.3-0.4-2.2-1.7-2.2c-1.4,0-2,0.9-2,2.8v5.6h-2.3V125.6z"/>
		<path class="st4" d="M97.8,131.6c0,3.1-1.3,5-4.6,5c-3.2,0-4.1-1.7-4.2-3.2h2.3c0.2,0.9,0.9,1.4,2.1,1.4c1.9,0,2.3-1.1,2.3-3.1
			V131c-0.5,1-1.5,1.4-2.8,1.4c-2.4,0-4-1.9-4-5.1c0-3.2,1.9-5.2,4.2-5.2c1.6,0,2.3,0.6,2.5,1.2c0-0.3,0.1-0.8,0.1-1h2.3
			c0,0.5,0,1.6,0,3V131.6z M91.2,127.3c0,2,0.8,3.2,2.2,3.2c1.7,0,2.2-1,2.2-3.2c0-2.1-0.4-3.2-2.2-3.2
			C92.1,124.1,91.2,125.2,91.2,127.3z"/>
		<path class="st4" d="M100.4,125.8c0-1.6,0-2.8,0-3.4h2.3c0,0.5,0.1,1.1,0.1,1.9c0.4-1,1.4-2,3.1-2v2.4c-2.2,0-3.1,0.9-3.1,3.2v4.7
			h-2.3V125.8z"/>
		<path class="st4" d="M115.7,129.6c0,1.4,0,2.4,0,3h-2.3c-0.1-0.3-0.1-0.8-0.1-1.4c-0.6,1.1-1.5,1.5-2.9,1.5
			c-1.9,0-3.1-1.1-3.1-3.5v-6.8h2.3v6.4c0,1.1,0.4,2,1.6,2c1.2,0,2-0.8,2-2.7v-5.7h2.3V129.6z"/>
		<path class="st4" d="M118.4,125.5c0-1.9,0-2.7,0-3.1h2.3c0,0.3,0.1,0.9,0.1,1.3c0.5-0.8,1.4-1.5,2.8-1.5c1.4,0,2.2,0.7,2.6,1.6
			c0.4-0.8,1.5-1.6,3-1.6c1.7,0,3.2,0.9,3.2,3.5v6.8h-2.3v-6.4c0-1-0.4-2-1.6-2c-1.3,0-1.9,1-1.9,2.6v5.8h-2.3V126
			c0-1-0.5-1.9-1.6-1.9c-1.2,0-1.9,0.8-1.9,2.7v5.7h-2.3V125.5z"/>
	</g>
</g>
<g>
	<path class="st4" d="M124.4,211.5c-0.3,0-0.6,0-0.9,0c0-0.3,0-0.6,0-0.9c-0.4,0-0.7,0-1,0l0,0c0-0.3,0-0.7,0-1c0.3,0,0.7,0,1,0
		c0-0.7,0-1.3,0-1.9c-0.3,0-0.7,0-1,0c0,0.7,0,1.3,0,1.9c-1,0-2,0-3,0c0,1,0,2,0,3l0,0c-0.3,0-0.6,0-1,0c0-0.6,0-1.3,0-1.9
		c-0.3,0-0.7,0-1,0c0,0.3,0,0.6,0,0.9c-0.3,0-0.6,0-1,0c0,0.4,0,0.7,0,1l0,0c-0.3,0-0.6,0-1,0c0,1,0,2,0,2.9c-0.3,0-0.7,0-1,0
		c0-1.3,0-2.6,0-3.9c0.3,0,0.6,0,1,0c0-0.3,0-0.7,0-1c0.3,0,0.7,0,1,0c0-0.4,0-0.7,0-1c0.6,0,1.3,0,1.9,0c0-0.7,0-1.3,0-1.9
		c-0.3,0-0.7,0-1,0c0,0.3,0,0.6,0,0.9c-0.3,0-0.6,0-0.9,0c0,0.4,0,0.7,0,1c-0.3,0-0.7,0-1,0c0,0.4,0,0.7,0,1c-0.3,0-0.6,0-1,0
		c0-0.7,0-1.3,0-2c0.3,0,0.6,0,1,0c0-0.3,0-0.6,0-1c-0.3,0-0.6,0-1,0c0-0.3,0-0.7,0-1c1.6,0,3.3,0,4.9,0c0,0.6,0,1.3,0,1.9
		c0.7,0,1.3,0,2,0c0-0.3,0-0.6,0-0.9c-0.3,0-0.6,0-1,0c0-0.4,0-0.7,0-1c1.6,0,3.3,0,4.9,0c0,0.3,0,0.6,0,1c-0.3,0-0.6,0-1,0
		c0,0.7,0,1.3,0,1.9c0.3,0,0.6,0,1,0c0-0.3,0-0.6,0-1c1,0,2,0,2.9,0c0-0.3,0-0.6,0-1c-0.6,0-1.3,0-1.9,0c0-1,0-2,0-3
		c0.3,0,0.6,0,0.9,0l0,0c0,0.3,0,0.7,0,1c0.4,0,0.7,0,1,0l0,0c0,0.3,0,0.7,0,1c0.7,0,1.3,0,2,0c0-0.7,0-1.3,0-2l0,0c0.3,0,0.6,0,1,0
		c0,0.7,0,1.3,0,2c0.3,0,0.7,0,1,0c0,0.7,0,1.3,0,2c1,0,2,0,3,0c0,0.3,0,0.7,0,1c-0.3,0-0.6,0-1,0c0,0.4,0,0.7,0,1c0.7,0,1.3,0,2,0
		c0,0.3,0,0.6,0,1c-0.3,0-0.6,0-1,0c0,0.7,0,1.3,0,2c-0.3,0-0.7,0-1,0c0-0.3,0-0.6,0-1c-0.3,0-0.6,0-0.9,0c0,0.3,0,0.6,0,1
		c-0.7,0-1.4,0-2,0l0,0c0-0.7,0-1.3,0-2c-0.4,0-0.7,0-1,0c0,0.7,0,1.3,0,2l0,0c-0.3,0-0.6,0-1,0c0,0.3,0,0.7,0,1l0,0
		c-0.3,0-0.6,0-1,0c0-0.3,0-0.6,0-0.9c-0.4,0-0.7,0-1,0c0,0.3,0,0.6,0,0.9c-0.3,0-0.6,0-0.9,0c0-1,0-1.9,0-2.9c-0.4,0-0.7,0-1,0l0,0
		c0-0.3,0-0.6,0-0.9c-0.4,0-0.7,0-1,0C124.4,210.9,124.4,211.2,124.4,211.5L124.4,211.5z M130.3,208.6c-0.3,0-0.6,0-0.9,0
		c0,0.7,0,1.3,0,2c0.3,0,0.6,0,0.9,0C130.3,209.9,130.3,209.2,130.3,208.6c0.3,0,0.7,0,1,0c0-0.3,0-0.6,0-0.9c-0.3,0-0.7,0-1,0
		C130.3,208,130.3,208.3,130.3,208.6z M128.4,212.5c0-1,0-2,0-2.9c-0.7,0-1.3,0-1.9,0c0,0.3,0,0.7,0,1c0.3,0,0.6,0,0.9,0
		c0,0.7,0,1.3,0,1.9C127.7,212.5,128,212.5,128.4,212.5z M132.4,209.6c0,0.3,0,0.7,0,1c0.3,0,0.7,0,1,0c0-0.3,0-0.7,0-1
		C133,209.6,132.7,209.6,132.4,209.6z"/>
	<path class="st4" d="M136.3,217.5c0,1,0,2,0,3c-0.3,0-0.7,0-1,0c0,0.3,0,0.6,0,0.9c0.3,0,0.7,0,1,0c0-0.3,0-0.6,0-0.9
		c0.3,0,0.6,0,1,0l0,0c0,0.3,0,0.6,0,1c0.4,0,0.7,0,1,0l0,0c0,0.3,0,0.6,0,1c0.3,0,0.7,0,1,0c0,0.3,0,0.7,0,1c-1.3,0-2.6,0-3.9,0
		c0-0.3,0-0.6,0-1c-0.3,0-0.7,0-1,0c0-0.4,0-0.7,0-1c-0.3,0-0.6,0-0.9,0c0,0.3,0,0.6,0,1c-0.7,0-1.4,0-2,0l0,0c0-0.3,0-0.6,0-1
		c0.3,0,0.7,0,1,0c0-0.3,0-0.6,0-1c-1,0-2,0-2.9,0l0,0c0-0.3,0-0.7,0-1l0,0c0.3,0,0.6,0,0.9,0c0-0.4,0-0.7,0-1c-0.3,0-0.6,0-0.9,0
		l0,0c0-0.3,0-0.6,0-0.9c0.3,0,0.6,0,0.9,0c0-0.3,0-0.7,0-1c-0.3,0-0.6,0-0.9,0c0-0.7,0-1.4,0-2l0,0c0.3,0,0.6,0,1,0
		c0-0.3,0-0.7,0-1l0,0c0.3,0,0.7,0,1,0l0,0c0,0.3,0,0.6,0,0.9c1.7,0,3.3,0,5,0c0,0.3,0,0.7,0,1c-0.3,0-0.6,0-1,0c0,0.7,0,1.3,0,2
		C135.7,217.5,136,217.5,136.3,217.5L136.3,217.5z M131.4,218.4c1,0,2,0,2.9,0c0-1,0-2,0-2.9c-1,0-2,0-2.9,0
		C131.4,216.5,131.4,217.5,131.4,218.4z"/>
	<path class="st4" d="M132.4,198.7c2.3,0,4.6,0,6.9,0c0,2.3,0,4.6,0,6.9c-2.3,0-4.6,0-6.9,0C132.4,203.3,132.4,201,132.4,198.7z
		 M138.3,204.6c0-1.7,0-3.3,0-4.9c-1.6,0-3.3,0-4.9,0c0,1.6,0,3.3,0,4.9C135,204.6,136.6,204.6,138.3,204.6z"/>
	<path class="st4" d="M114.6,205.6c0-2.3,0-4.6,0-6.9c2.3,0,4.6,0,6.9,0c0,2.3,0,4.6,0,6.9C119.2,205.6,116.9,205.6,114.6,205.6z
		 M120.5,199.7c-1.7,0-3.3,0-4.9,0c0,1.6,0,3.3,0,4.9c1.7,0,3.3,0,4.9,0C120.5,203,120.5,201.3,120.5,199.7z"/>
	<path class="st4" d="M121.4,216.5c0,2.3,0,4.6,0,6.9c-0.1,0-0.2,0-0.3,0c-2.1,0-4.2,0-6.3,0c-0.2,0-0.3,0-0.3-0.3
		c0-2.1,0-4.2,0-6.4c0-0.1,0-0.2,0-0.2C116.9,216.5,119.1,216.5,121.4,216.5z M120.5,217.5c-1.7,0-3.3,0-4.9,0c0,1.6,0,3.3,0,4.9
		c1.7,0,3.3,0,4.9,0C120.5,220.8,120.5,219.2,120.5,217.5z"/>
	<path class="st4" d="M130.3,199.7c0,0.3,0,0.7,0,1l0,0c-0.3,0-0.6,0-1,0c0,0.3,0,0.7,0,1l0,0c-0.3,0-0.7,0-1,0c0-0.3,0-0.6,0-0.9
		c-0.7,0-1.3,0-2,0c0,0.7,0,1.3,0,1.9l0,0c-0.3,0-0.7,0-1,0l0,0c0-0.3,0-0.7,0-1c-0.4,0-0.7,0-1,0c0,0.3,0,0.7,0,1l0,0
		c-0.6,0-1.3,0-1.9,0c0-0.3,0-0.7,0-1c0.3,0,0.6,0,1,0c0-0.3,0-0.6,0-1c-0.3,0-0.6,0-1,0c0-0.3,0-0.7,0-1c0.3,0,0.6,0,1,0
		c0-0.4,0-0.7,0-1c0.3,0,0.6,0,0.9,0c0,0.7,0,1.3,0,2c0.4,0,0.7,0,1,0c0-0.3,0-0.6,0-1c1,0,2,0,3,0c0-0.3,0-0.7,0-1c0.3,0,0.7,0,1,0
		c0,0.3,0,0.6,0,1C129.7,199.7,130,199.7,130.3,199.7L130.3,199.7z"/>
	<path class="st4" d="M129.4,220.5c0,0.3,0,0.6,0,0.9c-1,0-2,0-2.9,0c0,0.3,0,0.7,0,1c-0.3,0-0.7,0-1,0c0-0.3,0-0.6,0-1
		c-0.7,0-1.3,0-1.9,0c0,0.7,0,1.3,0,2c-0.3,0-0.7,0-1,0c0-1.6,0-3.3,0-5c1,0,2,0,2.9,0l0,0c0,0.3,0,0.7,0,1c-0.3,0-0.7,0-1,0
		c0,0.4,0,0.7,0,1c0.3,0,0.7,0,1,0c0-0.3,0-0.7,0-1c0.3,0,0.7,0,1,0c0,0.4,0,0.7,0,1C127.4,220.5,128.4,220.5,129.4,220.5
		L129.4,220.5z"/>
	<path class="st4" d="M125.4,218.5c0-0.3,0-0.6,0-0.9c-0.3,0-0.7,0-1,0c0-0.7,0-1.3,0-2c0.3,0,0.6,0,1,0c0,0.3,0,0.6,0,1
		c1,0,2,0,3,0c0,0.7,0,1.3,0,2c0.4,0,0.7,0,1,0l0,0c0,0.3,0,0.7,0,1l0,0c-0.7,0-1.3,0-2,0c0-0.7,0-1.3,0-1.9c-0.3,0-0.6,0-0.9,0
		c0,0.3,0,0.6,0,0.9C126.1,218.5,125.7,218.5,125.4,218.5L125.4,218.5z"/>
	<path class="st4" d="M127.4,204.6c0-0.3,0-0.6,0-1l0,0c0.7,0,1.3,0,2,0c0-0.7,0-1.4,0-2l0,0c0.3,0,0.6,0,1,0c0-0.3,0-0.7,0-1l0,0
		c0.3,0,0.6,0,1,0c0,0.6,0,1.3,0,1.9c-0.3,0-0.6,0-1,0c0,0.7,0,1.3,0,2l0,0c-0.3,0-0.6,0-1,0c0,0.4,0,0.7,0,1c-0.4,0-0.7,0-1,0l0,0
		c0-0.3,0-0.7,0-1C128,204.6,127.7,204.6,127.4,204.6L127.4,204.6z"/>
	<path class="st4" d="M136.3,217.5c0-0.3,0-0.6,0-1c0.6,0,1.3,0,1.9,0c0-0.7,0-1.3,0-2c-0.3,0-0.6,0-1,0c0-0.3,0-0.7,0-1l0,0
		c0.7,0,1.3,0,2,0c0,1.3,0,2.6,0,4C138.3,217.5,137.3,217.5,136.3,217.5C136.3,217.5,136.3,217.5,136.3,217.5z"/>
	<path class="st4" d="M137.3,220.5c0-0.3,0-0.6,0-1c0.7,0,1.3,0,2,0c0,0.6,0,1.3,0,1.9c-0.3,0-0.7,0-1,0l0,0c0-0.3,0-0.6,0-1
		C137.9,220.5,137.6,220.5,137.3,220.5L137.3,220.5z"/>
	<path class="st4" d="M125.4,202.6c0,1,0,1.9,0,2.9c-0.3,0-0.6,0-1,0c0-1,0-2,0-2.9l0,0C124.7,202.7,125.1,202.7,125.4,202.6
		L125.4,202.6z"/>
	<path class="st4" d="M137.3,210.6c0.7,0,1.3,0,2,0c0,0.6,0,1.3,0,1.9c-0.3,0-0.6,0-1,0c0-0.3,0-0.6,0-1c-0.3,0-0.7,0-1,0
		C137.3,211.2,137.3,210.9,137.3,210.6z"/>
	<path class="st4" d="M122.4,210.6c0,0.6,0,1.3,0,2c-0.3,0-0.7,0-1,0l0,0c0-0.3,0-0.7,0-1c-0.4,0-0.7,0-1,0c0-0.3,0-0.6,0-0.9
		C121.1,210.6,121.8,210.6,122.4,210.6L122.4,210.6z"/>
	<path class="st4" d="M122.5,215.5c0.3,0,0.6,0,1,0c0,0.7,0,1.3,0,2c-0.3,0-0.6,0-1,0C122.5,216.8,122.5,216.2,122.5,215.5z"/>
	<path class="st4" d="M131.3,222.4c0,0.3,0,0.6,0,1c-0.6,0-1.3,0-1.9,0c0-0.3,0-0.6,0-1C130.1,222.4,130.7,222.4,131.3,222.4
		C131.3,222.4,131.3,222.4,131.3,222.4z"/>
	<path class="st4" d="M119.5,213.6c0-0.3,0-0.7,0-1c0,0,0,0,0,0c0.7,0,1.3,0,2,0l0,0c0,0.3,0,0.7,0,1c0,0,0,0,0,0
		C120.8,213.5,120.2,213.5,119.5,213.6C119.5,213.6,119.5,213.6,119.5,213.6z"/>
	<path class="st4" d="M118.5,214.5c0,0.3,0,0.6,0,1c-0.7,0-1.3,0-1.9,0c0-0.3,0-0.6,0-1C117.2,214.5,117.8,214.5,118.5,214.5
		L118.5,214.5z"/>
	<path class="st4" d="M123.4,205.6c-0.3,0-0.6,0-1,0c0-0.6,0-1.3,0-1.9c0.3,0,0.6,0,1,0C123.4,204.3,123.4,205,123.4,205.6z"/>
	<path class="st4" d="M121.5,214.5c0-0.3,0-0.6,0-1c0,0,0,0,0,0c0.7,0,1.3,0,2,0c0,0.3,0,0.6,0,0.9
		C122.8,214.5,122.1,214.5,121.5,214.5L121.5,214.5z"/>
	<path class="st4" d="M125.4,211.5c0,0.3,0,0.6,0,1c-0.3,0-0.6,0-1,0c0-0.3,0-0.7,0-1l0,0C124.7,211.5,125.1,211.5,125.4,211.5
		L125.4,211.5z"/>
	<path class="st4" d="M121.4,214.5c0,0.3,0,0.6,0,1c-0.3,0-0.6,0-1,0c0-0.3,0-0.6,0-1C120.8,214.5,121.1,214.5,121.4,214.5
		C121.5,214.5,121.4,214.5,121.4,214.5z"/>
	<path class="st4" d="M138.3,207.6c-0.3,0-0.6,0-1,0c0-0.3,0-0.7,0-1c0.3,0,0.6,0,1,0C138.3,207,138.3,207.3,138.3,207.6
		L138.3,207.6z"/>
	<path class="st4" d="M135.3,207.6c0-0.3,0-0.6,0-1c0.3,0,0.6,0,1,0c0,0.3,0,0.6,0,1C136,207.6,135.7,207.6,135.3,207.6z"/>
	<path class="st4" d="M130.3,199.7c0-0.3,0-0.6,0-1c0.3,0,0.6,0,1,0c0,0.3,0,0.6,0,1C131,199.7,130.7,199.7,130.3,199.7
		C130.3,199.7,130.3,199.7,130.3,199.7z"/>
	<path class="st4" d="M127.4,222.4c0.3,0,0.6,0,1,0c0,0.3,0,0.6,0,1c-0.3,0-0.6,0-1,0C127.4,223.1,127.4,222.8,127.4,222.4z"/>
	<path class="st4" d="M116.5,212.5c0.3,0,0.6,0,0.9,0c0,0.3,0,0.6,0,1c-0.3,0-0.6,0-0.9,0C116.5,213.2,116.5,212.9,116.5,212.5
		C116.5,212.5,116.5,212.5,116.5,212.5z"/>
	<path class="st4" d="M137.3,213.5c-0.3,0-0.6,0-0.9,0c0-0.3,0-0.6,0-1c0.3,0,0.6,0,0.9,0C137.3,212.9,137.3,213.2,137.3,213.5
		C137.3,213.6,137.3,213.5,137.3,213.5z"/>
	<path class="st4" d="M118.5,214.5c0-0.3,0-0.6,0-0.9c0.3,0,0.7,0,1,0c0,0,0,0,0,0c0,0.3,0,0.6,0,0.9
		C119.1,214.5,118.8,214.5,118.5,214.5C118.5,214.5,118.5,214.5,118.5,214.5z"/>
	<path class="st4" d="M124.4,213.6c0.3,0,0.6,0,1,0c0,0.3,0,0.6,0,0.9c-0.3,0-0.6,0-1,0C124.4,214.2,124.4,213.9,124.4,213.6z"/>
	<path class="st4" d="M138.3,207.6c0.3,0,0.6,0,1,0c0,0.3,0,0.6,0,0.9c-0.3,0-0.6,0-1,0C138.3,208.2,138.3,207.9,138.3,207.6
		C138.3,207.6,138.3,207.6,138.3,207.6z"/>
	<path class="st4" d="M133.4,206.6c0.3,0,0.6,0,0.9,0c0,0.3,0,0.6,0,1c-0.3,0-0.6,0-0.9,0C133.4,207.3,133.4,207,133.4,206.6z"/>
	<path class="st4" d="M127.4,203.7c-0.3,0-0.6,0-0.9,0c0-0.3,0-0.7,0-1l0,0c0.3,0,0.6,0,1,0C127.4,203,127.4,203.3,127.4,203.7
		L127.4,203.7z"/>
	<path class="st4" d="M137.2,209.6c-0.3,0-0.6,0-0.9,0c0-0.3,0-0.6,0-1c0.3,0,0.6,0,0.9,0C137.2,208.9,137.2,209.2,137.2,209.6z"/>
	<path class="st4" d="M132.4,217.5c0-0.3,0-0.6,0-1c0.3,0,0.6,0,1,0c0,0.3,0,0.6,0,1C133,217.5,132.7,217.5,132.4,217.5z"/>
	<path class="st4" d="M137.3,203.6c-1,0-1.9,0-2.9,0c0-1,0-1.9,0-2.9c1,0,1.9,0,2.9,0C137.3,201.7,137.3,202.6,137.3,203.6z"/>
	<path class="st4" d="M119.5,203.6c-1,0-1.9,0-2.9,0c0-1,0-1.9,0-2.9c1,0,1.9,0,2.9,0C119.5,201.7,119.5,202.6,119.5,203.6z"/>
	<path class="st4" d="M116.5,218.5c1,0,1.9,0,2.9,0c0,1,0,1.9,0,2.9c-1,0-1.9,0-2.9,0C116.5,220.4,116.5,219.5,116.5,218.5z"/>
	<path class="st4" d="M127.4,202.7c0-0.3,0-0.6,0-1c0.4,0,0.7,0,1,0c0,0.3,0,0.6,0,1C128,202.7,127.7,202.7,127.4,202.7z"/>
</g>
<g>
	<g>
		<path class="st7" d="M30.3,20.1c-5.9,0-10.7,4.8-10.7,10.7c0,0.7,0.1,1.3,0.2,2c1.3-0.3,2.6-0.7,3.9-1.2c0-0.3,0-0.5,0-0.8
			c0-3.7,3-6.7,6.7-6.7c1.5,0,2.9,0.5,4,1.3c1-0.9,2-1.8,2.9-2.8C35.4,21.1,33,20.1,30.3,20.1L30.3,20.1z M20.6,35.4
			c1.7,3.6,5.4,6.2,9.7,6.2c5.9,0,10.7-4.8,10.7-10.7c0-0.2,0-0.4,0-0.6c-0.1,0.1-0.3,0.2-0.5,0.3c0,0,0,0-0.1,0
			c-1.2,0.7-2.4,1.3-3.7,1.9c-0.7,2.9-3.4,5.1-6.5,5.1c-2,0-3.8-0.9-5-2.2c-0.9,0.1-1.9,0.1-2.9,0.1C21.9,35.5,21.3,35.5,20.6,35.4
			L20.6,35.4z"/>
		<path class="st8" d="M28.1,36.4c2.1,0,3.9-1,5.2-2.6c0.9-0.3,1.9-0.6,2.8-1c-0.4,1.1-1.1,2-2,2.7c-1,0.8-2.3,1.3-3.7,1.3
			C29.5,36.8,28.8,36.7,28.1,36.4L28.1,36.4z"/>
		<path class="st8" d="M24.4,31.4c0.6-0.2,1.1-0.5,1.7-0.7c0.4-2.9,2.6-5.2,5.5-5.7c-0.4-0.1-0.8-0.1-1.2-0.1
			c-1.6,0-3.1,0.7-4.2,1.8c-1.1,1.1-1.8,2.6-1.8,4.2c0,0.1,0,0.3,0,0.4C24.4,31.3,24.4,31.4,24.4,31.4L24.4,31.4z"/>
		<path class="st7" d="M16.3,34.2c2,0.4,4.2,0.5,6.2,0.5c6.2,0,12.3-1.7,17.7-4.8c1.2-0.7,2-2,2-3.5c0-1.5-0.8-3.8-1.7-5.1
			c-0.1-0.2-0.3-0.3-0.6-0.3c-0.2,0-0.4,0.1-0.5,0.2C33.7,28.4,25.3,33.1,16.3,34.2L16.3,34.2z"/>
	</g>
</g>
<path class="st4" d="M139.3,25l0-4.3c0-0.2-0.1-0.4-0.2-0.5c-0.1-0.1-0.3-0.2-0.5-0.2c-0.2,0-0.4,0.1-0.5,0.2
	c-0.1,0.1-0.2,0.3-0.2,0.5l0,4.3v1.4l0,4.3c0,0.1,0,0.2,0.1,0.3c0,0.1,0.1,0.2,0.2,0.2s0.1,0.1,0.2,0.2c0.1,0,0.2,0.1,0.3,0.1
	c0.1,0,0.2,0,0.3-0.1c0.1,0,0.2-0.1,0.2-0.2c0.1-0.1,0.1-0.1,0.2-0.2c0-0.1,0.1-0.2,0.1-0.3l0-4.3"/>
<path class="st4" d="M139.3,87.7l0-4.3c0-0.2-0.1-0.4-0.2-0.5c-0.1-0.1-0.3-0.2-0.5-0.2c-0.2,0-0.4,0.1-0.5,0.2
	c-0.1,0.1-0.2,0.3-0.2,0.5l0,4.3v1.4l0,4.3c0,0.1,0,0.2,0.1,0.3c0,0.1,0.1,0.2,0.2,0.2c0.1,0.1,0.1,0.1,0.2,0.2
	c0.1,0,0.2,0.1,0.3,0.1c0.1,0,0.2,0,0.3-0.1c0.1,0,0.2-0.1,0.2-0.2c0.1-0.1,0.1-0.1,0.2-0.2c0-0.1,0.1-0.2,0.1-0.3l0-4.3"/>
<path class="st4" d="M20.4,64.5l0-4.3c0-0.2-0.1-0.4-0.2-0.5s-0.3-0.2-0.5-0.2c-0.2,0-0.4,0.1-0.5,0.2s-0.2,0.3-0.2,0.5l0,4.3l0,1.4
	l0,4.3c0,0.1,0,0.2,0.1,0.3c0,0.1,0.1,0.2,0.2,0.2c0.1,0.1,0.1,0.1,0.2,0.2c0.1,0,0.2,0.1,0.3,0.1c0.1,0,0.2,0,0.3-0.1
	c0.1,0,0.2-0.1,0.2-0.2c0.1-0.1,0.1-0.1,0.2-0.2c0-0.1,0.1-0.2,0.1-0.3l0-4.3"/>
</svg>
